<mxfile host="app.diagrams.net" modified="2020-07-07T08:30:37.851Z" agent="5.0 (Macintosh; Intel Mac OS X 10_15_4) AppleWebKit/537.36 (KHTML, like Gecko) Chrome/83.0.4103.116 Safari/537.36" etag="7KA5MkQHWtMN1eZ8tsXj" version="13.3.9" type="github">
  <diagram id="ZO4RawLSk8PTcqZIOAbu" name="第 1 页">
    <mxGraphModel dx="1186" dy="773" grid="0" gridSize="10" guides="1" tooltips="1" connect="1" arrows="1" fold="1" page="0" pageScale="1" pageWidth="4681" pageHeight="3300" background="#FAFAFA" math="0" shadow="0">
      <root>
        <mxCell id="0" />
        <mxCell id="1" parent="0" />
        <mxCell id="mTimWWr_9vVEEQS7NUzW-1" value="" style="shape=image;verticalLabelPosition=bottom;labelBackgroundColor=#ffffff;verticalAlign=top;aspect=fixed;imageAspect=0;image=data:image/png,iVBORw0KGgoAAAANSUhEUgAAAkQAAAJECAYAAAD34DtaAAAKBGlDQ1BJQ0MgUHJvZmlsZQAASImVlndUFFkaxV9V50TohiY10MQm59CA5JwkSBaFpslJaKKICRkcgRFFRAQUQYao4IgEMSGiGBgEFDAPyCCgrGJAVNTeQiaeObt79tZ59f3O96ruee/VH3UBIDlxkpLiYSEAEhJTed6ONsyAwCAmbgqQkYsA2IDK4aYkWXt6ugFEv9e/6/0YgFbqHc0Vr3/O/1cJh0ekcAGAPBHeGJ7CTUD4FMJ63CReKsK/IqyQkZqEMIxHWISHLBBhxgpHrbLOCoetst23Z3y8bREOAABP5nB4UQAQw5E+M50bhfgQcxHWSQyPSUT4DMIW3GgOMk98h7BGQsImhElMhFXC/uIT9TfPsD88OZyoP3h1L9+EdrO1+z+P4n8rIT7td/+VEydnRduuRSodGYwNb6LlvK6l5zIZITE5POAGbIEdUxqA1IjM1JUXbDclbebFREWnMq2RrxTBdE7kamkw9XR0TQBY+eartm/p35wh+s0/e7t2A2DeyOfzz/3Zc50GoO0Vsu/Hf/ZYsQAIRANw/SA3jZf+2zGs3DCACASBCJAAMkABqABNoAeMgBmwAvbABXgAHxAINgIuiAYJgAcyQDbYCfJAAdgHDoJyUAWOgwZwEpwGneA8uAyugVtgCIyCh2ACTIMXYAG8B8sQBOEgCkSDJCBZSAlSh/QgNmQB2UNukDcUCIVCUVAilAZlQ7ugAqgYKoeqoUboJ+gsdBm6AQ1D96FJaA56A32CUTAZFoGlYWVYG2bD1rAr7ANvgKPgZDgLzoX3wmVwDXwC7oAvw7fgUXgCfgEvogCKhKKj5FCaKDbKFuWBCkJFoniobah8VCmqBtWC6kb1o+6gJlDzqI9oLJqGZqI10WZoJ7QvmotORm9DF6LL0Q3oDnQf+g56Er2A/oqhYBgYdYwpxhkTgInCZGDyMKWYOkw75ipmFDONeY/FYulYFtYY64QNxMZit2ALsUewrdge7DB2CruIw+EkcOo4c5wHjoNLxeXhDuNO4C7hRnDTuA94El4Wr4d3wAfhE/E5+FJ8E/4ifgQ/g18mCBGUCKYED0I4YTOhiFBL6CbcJkwTlonCRBbRnOhDjCXuJJYRW4hXiY+Ib0kkkjzJhORFiiHtIJWRTpGukyZJH8lUshrZlhxMTiPvJdeTe8j3yW8pFIoyxYoSREml7KU0Uq5QnlA+CNAEtAScBcIFtgtUCHQIjAi8FCQIKglaC24UzBIsFWwTvC04L0QQUhayFeIIbROqEDorNC60KEwT1hX2EE4QLhRuEr4hPEvFUZWp9tRwai71OPUKdYqGoinQbGlc2i5aLe0qbVoEK8IScRaJFSkQOSkyKLIgShU1EPUTzRStEL0gOkFH0ZXpzvR4ehH9NH2M/klMWsxaLEJsj1iL2IjYkriUuJV4hHi+eKv4qPgnCaaEvUScxH6JTonHkmhJNUkvyQzJo5JXJeelRKTMpLhS+VKnpR4wYIYaw5uxhXGcMcBYlJaRdpROkj4sfUV6XoYuYyUTK1Mic1FmTpYmayEbI1sie0n2OVOUac2MZ5Yx+5gLcgw5J7k0uWq5QblleZa8r3yOfKv8YwWiAlshUqFEoVdhQVFW0V0xW7FZ8YESQYmtFK10SKlfaUmZpeyvvFu5U3mWJc5yZmWxmlmPVCgqlirJKjUqd1WxqmzVONUjqkNqsJqhWrRahdptdVjdSD1G/Yj6sAZGw0QjUaNGY1yTrGmtma7ZrDmpRddy08rR6tR6qa2oHaS9X7tf+6uOoU68Tq3OQ12qrotujm637hs9NT2uXoXeXX2KvoP+dv0u/dcG6gYRBkcN7hnSDN0Ndxv2Gn4xMjbiGbUYzRkrGocaVxqPs0XYnuxC9nUTjImNyXaT8yYfTY1MU01Pm74y0zSLM2sym13DWhOxpnbNlLm8Oce82nzCgmkRanHMYsJSzpJjWWP51ErBKtyqzmrGWtU61vqE9UsbHRueTbvNkq2p7VbbHjuUnaNdvt2gPdXe177c/omDvEOUQ7PDgqOh4xbHHieMk6vTfqdxZ2lnrnOj84KLsctWlz5Xsus613LXp25qbjy3bnfY3cX9gPujtUprE9d2egAPZ48DHo89WZ7Jnue8sF6eXhVez7x1vbO9+9fR1oWsa1r33sfGp8jnoa+Kb5pvr5+gX7Bfo9+Sv51/sf9EgHbA1oBbgZKBMYFdQbggv6C6oMX19usPrp8ONgzOCx7bwNqQueHGRsmN8RsvhAiGcELaQjGh/qFNoZ85HpwazmKYc1hl2ALXlnuI+yLcKrwkfC7CPKI4YibSPLI4cjbKPOpA1Fy0ZXRp9HyMbUx5zOtYp9iq2KU4j7j6OH68f3xrAj4hNOFsIjUxLrFvk8ymzE3DSepJeUkTyabJB5MXeK68uhQoZUNKV6oI8nMdSFNJ+y5tMt0ivSL9Q4ZfRlumcGZi5sBmtc17Ns9kOWT9uAW9hbulN1sue2f25FbrrdXboG1h23q3K2zP3T69w3FHw07izridP+fo5BTnvNvlv6s7Vzp3R+7Ud47fNecJ5PHyxneb7a76Hv19zPeDe/T3HN7zNT88/2aBTkFpwedCbuHNH3R/KPuBvzdy72CRUdHRfdh9ifvG9lvubygWLs4qnjrgfqCjhFmSX/LuYMjBG6UGpVWHiIfSDk2UuZV1HVY8vO/w5/Lo8tEKm4rWSkblnsqlI+FHRo5aHW2pkq4qqPp0LObYvWrH6o4a5ZrS49jj6cef1frV9v/I/rGxTrKuoO5LfWL9RIN3Q1+jcWNjE6OpqBluTmueOxF8Yuik3cmuFs2W6lZ6a8EpcCrt1POfQn8aO+16ureN3dZyRulMZTutPb8D6tjcsdAZ3TnRFdg1fNblbG+3WXf7Oa1z9eflzldcEL1QdJF4Mfci/1LWpcWepJ75y1GXp3pDeh9eCbhyt8+rb/Cq69Xr1xyuXem37r903fz6+RumN87eZN/svGV0q2PAcKD9Z8Of2weNBjtuG9/uGjIZ6h5eM3xxxHLk8h27O9fuOt+9Nbp2dHjMd+zeePD4xL3we7P34++/fpD+YPnhjkeYR/mPhR6XPmE8qflF9ZfWCaOJC5N2kwNP1z19OMWdevFryq+fp3OfUZ6VzsjONM7qzZ6fc5gber7++fSLpBfL83n/Ev5X5UuVl2deWb0aWAhYmH7Ne81/U/hW4m39O4N3vYuei0/eJ7xfXsr/IPGh4SP7Y/8n/08zyxmfcZ/Lvqh+6f7q+vURP4HPT+LwON+iAAoZcGQkAG/qAaAEAkAbQvLD+tVM9lumgf6Sbv4Dr+a2bzICoAUp3ivppgeAU8hQtkK8dwCwEid9rACsr//H+E0pkfp6q15kHhJNPvD5b5GUhOsG4AuPz18+wud/qUUWex+AnuTVLLgiLJKQj63kTDAi2/aPXPZvWZW9CNhD8eEAAABsZVhJZk1NACoAAAAIAAQBGgAFAAAAAQAAAD4BGwAFAAAAAQAAAEYBKAADAAAAAQACAACHaQAEAAAAAQAAAE4AAAAAAAAAkAAAAAEAAACQAAAAAQACoAIABAAAAAEAAAJEoAMABAAAAAEAAAJEAAAAAOLv4DEAAAAJcEhZcwAAFiUAABYlAUlSJPAAAEAASURBVHgB7J0J/A1V/8dPWihLQihPoRQqIvuW1qdVi/aFtD31tBKVJRRCq5QU9STt/6Lt6alEm9CqUhKSZC/KLrLM/3zOz3fMnd/c+7t37pwzy/2el59zl7kzcz5zZuY93+/3fM8uf//9tyW4sAKsACvACrACrAArUMAKlCrgtnPTWQFWgBVgBVgBVoAVUAowEHFHYAVYAVaAFWAFWIGCV4CBqOC7AAvACrACrAArwAqwAgxE3AdYAVaAFWAFWAFWoOAVYCAq+C7AArACrAArwAqwAqwAAxH3AVaAFWAFWAFWgBUoeAUYiAq+C7AArAArwAqwAqwAK8BAxH2AFWAFWAFWgBVgBQpeAQaigu8CLAArwAqwAqwAK8AKMBBxH2AFWAFWgBVgBViBgleAgajguwALwAqwAqwAK8AKsAIMRNwHWAFWgBVgBVgBVqDgFWAgKvguwAKwAqwAK8AKsAKsAAMR9wFWgBVgBVgBVoAVKHgFGIgKvguwAKwAK8AKsAKsACvAQMR9gBVgBVgBVoAVYAUKXgEGooLvAiwAK8AKsAKsACvACjAQcR9gBVgBVoAVYAVYgYJXgIGo4LsAC8AKsAKsACvACrACDETcB1gBVoAVYAVYAVag4BVgICr4LsACsAKsACvACrACrAADEfcBVoAVYAVYAVaAFSh4BRiICr4LsACsACvACrACrAArwEDEfYAVYAVYAVaAFWAFCl4BBqKC7wIsACvACrACrAArwAowEHEfYAVYAVaAFWAFWIGCV4CBqOC7AAvACrACrAArwAqwAgxE3AdYAVaAFWAFWAFWoOAVYCAq+C7AArACrAArwAqwAqwAAxH3AVaAFWAFWAFWgBUoeAUYiAq+C7AArAArwAqwAqwAK8BAxH2AFWAFWAFWgBVgBQpeAQaigu8CLAArwAqwAqwAK8AKMBBxH2AFWAFWgBVgBViBgleAgajguwALwAqwAqwAK8AKsAIMRNwHWAFWgBVgBVgBVqDgFWAgKvguwAKwAqwAK8AKsAKsAAMR9wFWgBVgBVgBVoAVKHgFdouzApZlxXn3ed9ZAVaAFWAFWIFYK7DLLrvEev+dOx87IHJCkPO1s1H8mhVgBVgBVoAVYAX0KgAYct6H4w5HsQIiCE9/dJidB4M+45oVYAVYAVaAFWAF9CpAAISa4Ig+07tlPWuPDRBt375dKQAAwmsCIwIiqvXIxGtlBVgBVoAVYAUKWwGJPQL/UAiCqC5VqlTsoSgWQOQEILx2/m3ZskVs2rSp6Ajx/6wAK8AKsAKsACugTQGyAAGASu0i/2RdvkJ5dV+OOxRFHojIEgQI2rZtm/rbvk2+3r5NHYB33nlH3HXXXdoOPq+YFWAFWAFWgBVgBbwVACANHz5cHH/88cpzQ8DkvXS0P400EAGGnNYgANHWrVvtP7z/+++/xYIFC6KtMu8dK8AKsAKsACuQUAXWr1+fEsYSVyiKLBApy9D2HUAkLUJbt20VcI/RH4ERgIgLK8AKsAKsACvACoSjABku4EKLc4k0EG23iuKFAENbtxQBEQAIfwAjQBFqLqwAK8AKsAKsACsQjgIU2iLHgYezAwFtNZJARLRpxw1t3Sa2bN2iQGjz5s0CfwREbCEKqCfwalgBVoAVYAVYAZ8KAIpUQRXTXI2RAyKbNHfEDyFOiGCIrENUs4XIZ8/ln7ECrAArwAqwAgEpYMOQXB+sRGp4fkDrNrmaSAERRIVViGoKoqa4IdQEQ6hVHJF0pXFhBVgBVoAVYAVYgfAUcEJReHuR35YjB0RuGCIoImsQQRG5zBBfxIUVYAVYAVaAFWAFwlEgCTAE5SIDRBCU/uzYIccwe6eViOAINYCJCyvACrACrAArwAqwAvkoEI0xcjIIi2AINbnNADvbZEA1gQ/V6nN8J/+wLBdWgBVgBVgBVoAVYAXyUSASQIQgLAIiAE6KhUi6xAA+gCHn5wRFDET5HH7+LSvACrACrAArwApAgWgAkbQKoRAMOWsCH2dN3+MzBiIlHf/HCrACrAArwAqwAnkoEDoQOS1DztcEPU4XGj4jMMJrWj6P9vNPWQFWgBVgBVgBVoAVCN9CRFBDNYGOs1av5TQetAzVtAwfR1aAFWAFWAFWgBVgBfJRIFQLEYGNs0bmb3pPwIP323bEFtF3VGN5LqwAK8AKsAKsACvACuSjQGhABKBxAg8BDs1fRt9RrfJfyt/QcqhREJDNhRVgBVgBVoAVYAVYgXwUCAWICIaw407Aoc8JgtzfOZen16i5sAKsACvACrACrAArkI8CxoGoCHp2WHd2WHzQAIIhJwQRGKGm1/ielqdl1Qf8HyvACrACrAArwAqwAj4VMJqp2gk92F+CGwIeqp3LOUGIlkdNr322m3/GCrACrAArwAqwAqyArYAxCxFBDm2ZoMYNPLQcfZ+uxnroO1on16wAK8AKsAKsACvACvhRwAgQFUFOcVdX0edF7jAvMLI8htrjNygMQ34ON/+GFWAFWAFWgBVgBbwU0O4yI+hxg4zzc4Ibp8tMfW/tTL5Iv0cjaHl67dUw/owVYAVYAVaAFWAFWIFsFdBqIXKCi3OH6PN8aqwPv+fCCrACrAArwAqwAqxAvgpoAyKCHecO0mdetddy+IyWdX7Pr1kBVoAVYAVYAVaAFQhSAW1AlG4nCXBQO4v7c3qPZdzLOn/Hr1kBVoAVYAVYAVaAFchXAWNARIDjhBvnZ0WvUy1C9H2+jeTfswKsACvACrACrAArkEkBI0DkhKBMOyNxyP6afsNQZEvCL1gBVoAVYAVYAVZAkwJGgEjTvvNqWQFWgBVgBVgBVoAVCEQBBqJAZOSVsAKsACvACrACrECcFdCehyjO4pS077vssktJi/D3rAArwAqwAqyAEQUo1MTIxhK4EQYinwe1UaNGYuTIkYKhyKeA/DNWgBVgBViBQBX497//Lb799ttA11lIK2Mg8nm0S5cuLVq2bMlA5FM//hkrwAqwAqxAcArAOoT7Ehf/CnAMkX/t+JesACvACrACrAArkBAFGIgSciC5GawAK8AKsAKsACvgXwEGIv/a8S9ZAVaAFWAFWAFWICEKMBAl5EByM1gBVoAVYAVYAVbAvwIMRP6141+yAqwAK8AKsAKsQEIUYCBKyIHkZrACrAArwAqwAqyAfwUYiPxrx79kBVgBVoAVYAVYgYQowECUkAPJzWAFWAFWgBVgBVgB/wowEPnXjn/JCrACrAArwAqwAglRgIEoIQeSm8EKsAKsACvACrAC/hVgIPKvHf+SFWAFWAFWgBVgBRKiAANRQg4kN4MVYAVYAVaAFWAF/CvAQORfO/4lK8AKsAKsACvACiREAQaihBxIbgYrwAqwAqwAK8AK+FeAgci/dvxLVoAVYAVYAVaAFUiIAgxECTmQ3AxWgBVgBVgBVoAV8K8AA5F/7fiXrAArwAqwAqwAK5AQBRiIEnIguRmsACvACrACrAAr4F8BBiL/2vEvWQFWgBVgBVgBViAhCjAQJeRAcjNYAVaAFWAFWAFWwL8CDET+teNfsgKsACvACrACrEBCFGAgSsiB5GawAqwAK8AKsAKsgH8FGIj8a8e/ZAVYAVaAFWAFWIGEKMBAlJADyc1gBVgBVoAVYAVYAf8KMBD5145/yQqwAqwAK8AKsAIJUYCBKCEHkpvBCrACrAArwAqwAv4VYCDyr10ov3z66afFuHHjxPbt241u/6WXXhIvvPCC2Lp1q9HthrWx559/XgwePFhs2LAhrF0wut33339f9OrVS/z2229GtxvWxubPny/69OkjPv30U6O7sHbtWvHwww+LadOmGd3u5s2bxehRo8W7775rdLuWZYmnnnpKvPrqq8avWTiHcd0qlGuW0QOb0I3tltB2JbJZw4cPF3fddZeoUKGC2LZtmzjvvPNEqVL6mXbMmDHq5oELy9+b/xaXdrpU7LZbcrsOLqQ9evQQK1asEKtXrxb9+/cXZcuWTWSfQqM++OAD0bNnT/H111+LmTNniieeeFJUr14tse39+eefRb9+/RTgv/7667K9T4jWrVtrby9gaMCAAQLncZMmTcSDDz5oZLuAoXvuuUcMGTJEHHLIIUJYQpx8ysna2wsYQhvR5ipVqigg6tixo5Fr1ujRo0Xfvn3VtrZs2SIuuuiiRF+ztB/MAtmA/rtpgQipu5m///67mDRpkrpB//rrr+L2228Xr7zyivanLlzEP/zwQ2U5ACDcdvtt4rnnnkvsU9eECRPEHXfcIZYvX66gExf0++67T2zatEn3IQ5l/d9++626YX311VeqL7399tvixhtvEH/++Wco+6N7o8uWLRNDhw5VMIRtzZo1S9x8883i+++/171psXjRYvHOO++oc+fzzz8Xt9xyi5g6dar27S5dulRtF30Y7cQ5/O47+i1FsDa+9957Yt26dQIWOVyzTFiKVq1apSB/5cqV6jy+7bbbxIsvvii2bd2mXWveQLwV2FVS9J26m4AnBSru13hPf3AD0R8sIPiDVQJ/9Dle43N6jwvcF198Qas3Vv/jH/8QV111ldhll12MbBMWigYNGogffvhBLFy4UIHRl19+Kfbff39x2GGHaduP0qVLi8aNG4t58+apP7iQYO6vVq2aOOKII4w87RkRWG4EMNS9e3fx008/2ZtE3/zss8/ErrvuKlq0aJGop0zAECxDcJdRQXvnzp0rFi9eLI455hix55570lexrwEGAwcOFLAeOAuuIbNnzxZHHXWU6tfO74J8vW/VfdX5Ct3/+OMPsWTJEnU+169fXxx44IFBbiplXfvss484+KCDxYzvZihAwMPVdzO+E7Vq1yqyGKUsHdybcuXKicMPP1xBGPoTQGX69OkC18569eppu2ahzx555JFizpw54pdfflFABtdo9f2qq/0xYVUPTsXc1vSf//xH9avcfpX/0meffbaoW7euuk7inkh/+a/Z7BoYiHzqbRqIsJuAkKZNm6ZAEWCwRo0aWqGoYsWKyrSfZCgiGAJwogACAUBwr8DkDghMEhQRDKHdKOjPZ511loJeuFhgOVFQ1F5C0V7xhyKCoccff1y1F25nuG/WrFmj/mB1NQFFgB+cr6ahqHbt2uqGNWPGTijC64NqHyTqHFJHaaLjv/3220+dS7BMOaHogAMO0ApFlStXFi1btiwGRdifpD3IOY8bA5FTjdxfMxDlrpn6RRhAhA27oQgX9LCgCOb+6tWrx/4C4wVD999/v7jhhhsEXIaIrQEU4SkTT5dxtxThZgz3BdwZKOjLCCDHZ3vvvbf45JNPhBOK2rdvL/baay+1bBz/c8MQ2gjLGNyhVatWFXAX4jwCFMGqoNtSBCiC5lGBIsCSii3SdHC9oAia64aiSpUqeUJREq5Z6Q4VA1E6ZbL7nIEoO52KLRUWEGFH0kER9gkXW11uPFiK2rRpo1xKsBbBfRZ3KPKEofvuF8cdf5yAu7Bt27Y2FP3999/KfVYERS1j6T5LB0OdOnVS7WnUqFGioMgLhhBT0rt3b3WewFqw77772lC0YMECI1AEl1GUoOigg6SlqI5ZS1GYUARIgzsvae4zBqJit+qcPmAgykmunQuHCUTYC4aincfC7ytPGJKWIcAQlfRQtIt6+ozTaLtMMETtRXsIiqZMmaKCycl9FjdLUSYYovbi4QGxeQxFM0ShWYqSCEUMRHRm+6sZiPzppp7uTAZVe+1m1KAoTv75tDB03E4YIs3TQRFupohTiAMUZQND1F6CIsTZwAKI0Ulxg6JsYIjaGwUo+uabb4wGWqeLKTIBRXBJOmOKMDgkDPcZ4gIxKCVJliIGIjqr/dUMRP50iwQQYdcBRc2aNbMDrSmmKAz3GSwKcYAiwBCGPOMmj4IAasQMHecBQ2oB+R9BEYYQY6QMuc/wfatWrSINRbnAELU3ExQdffTRkY4pwuitQYMGCQqgRswQucmofe46ExShf+A801XgPgMQ4DiZHH0G+KlXt55wB1onGYpwriJ4HqPP1q9frwZLJAmKGIjyO0sZiHzqF7bLzLnbCAzF6DMk1cOQfJNQhBgbDFOnmKKoQ5EfGCKtAUWIocKFNC5Q5AeGqL3poAjAEVUo8gND1N6woQjXFNOWIgy9B5ChnyBvEIbkq9FnBmKKvCxFSD+A4ds4FjoKAq2TDEUMRPn1GgYin/pFCYjQBECRl6UIT546A63x9O2GIoxSiqKlCKOqcrUMubtHnKAoHxiidscJivKBIWpv2FCE89U4FNViKEqK+4yBiM5kfzUDkT/dIuMyc+4+WYooeSMsRciIaxqKNm7cqIZuRwmKAEPdunXLyU3m1Nb5Og5Q5IYh9AEMrcdoslxLHKAoCBgiXRiKCtdShBxRcY4pYiCis9hfzUDkT7dIAhGa4gVFyLRcyFAUJAxRdyEoQuoBp/sMmZ4xLxaSOIZVAEOImZk4caLaBRx7xNR07tzZ9y55QdGPP/6oku2F7T7zgqFbb71Vzb/nt8FRhCK4tnRmtK4VoqUIc7t99913dvJGBFqH4T7DIII4QxEDkd8zvuh3DEQ+9Yuay8zZDC/3mSkoate2nZj701wVU0SWojCDFt0whLiFkgKonVpmeg0oAvw4oQgWuTChyAuG7r777rxgiDQgKCpfvnzK6DMASbt27UKZAFcHDFF7owZFGASQVChCssSwoAjnsDPQOs5QxEBEZ6+/moHIn26RtRBRc0KFInlzxHxYCLR2QpHplPleMISJWjONJiP9sq2jBEVeMJSvZcitA6AIo66iAEU6YYjanQmKkK8JN3JdheAHmdJp9Jk5KKovA62/MRponQ6Kah5YU2ugNeZ6c0MRBofE0VLEQJTf2chA5FO/KFuIqEnpoAimaFxscbHXURBoDYtBmFAEGOratauAWwcFlqGgYYi0c0IRsu9img/TliITMETtjQIUuWEIWdTzdZNR+9w1QVGVKvvKaVymq1GcyGiN/p1kKMJgDAR4mxx95gVFX3z5hahZk6HI3S+93jMQeamS/WcMRNlrlbJkHIAIOxwlKJo8ebJKhKbbUmQShqhTEBTBIob4B4Ki7du3q6H6OmOKTMIQtdcJRRihg+SNgE8T7jNMEgo3IOUZAgz16NEjr5ghale6eicUVRFfT//aAUU/SSg6MrGWoshAkZzEOiwowrX+sMMOi8U0HwxE6c7g7D5nIMpOp2JLxQWIsONRg6Ia+9fQNiFsGDBEnQNQhBwnf/31lzEoCgOGqL0EReXKlVMJ7tBu3VAUBgxRewFFDRs2FJWrVFYT/mIUJyxFyMN15JGFA0XocwcffLDWuc+KLEVNUwKtYXVF4LfOPEVwnyHXGPoxJW+E+ywuUMRARGerv5qByJ9ukY8hcjcLUNS8efOU5I0ItDbhPsMoJKf77OPJH0tLUfBQFCYMkd5lypRJC0XI1xSkpQg3JriJJk2apDYfxGgyake2dSYoaisD7MuWLZvtqkpcLkwYop2zoahy4ULRihUrlCvNBBQh4SyNPlu9erVyRTMUUW8sXjMQFdckl08YiHJRy7FsnCxEtNuYwLJ5MwlFP+zMaG0CijAnlhuKJksoCtJSFAUYIp0JiuBGIvfZF9Lkv3XrVpXEMggoQjbhsGGI2ktQBPj59NNPlYWMLEWAwCCgSMHQIOkmG/W42qwJNxm1z117QRGsCYVkKSoUKMLos/nz56vs9HGwFDEQuc/W3N4zEOWml710HIEIO79vVQlFIViKvKCoyFK0f97usyjBEHUQQBEmfiUowtxngKMgoAgwhJiZMC1D1E6qdUIRYAij5UaNGqU2FyYMUXvDhiKMvApj9BliaSjQGlBku88OriOEnjEaKj4rTEsRoOjnn39W6TWiDkUMRHSG+qsZiPzpFjuXmbOZylIUFhS1O9qe+wwByPkGWkcRhkjrdFCEgGuMwvNjKYoiDFF7dUBROhjq3bu3tlGS1J6S6jChqG69uirI2AlFsMrRUP2S9t3v9whsdkIR5j4rBCiaM2dOLKCIgchvzy76HQORT/3iaiGi5oYGRXtXUDBAE8LmA0UT35tobGg96ZZrraCoRUuxefNmAbcZWYr8QBFgqHv37uL9999XuxFGzFBJ7Q8SiqIMQ6RDRihqqDfQGsHFABSCIugVFhTBanRwHRloHZKlSGcaEQq09oIiTPOBPhCVwkCU35FgIPKpX9yBCM0ODYpkTBEsJPlAEaaluLnrzeoGgLbozDOE9edTAEUtWrQoBkWAo2wtRelgCHOTRemCDJ2CgCKCodGjRyvpyU0WBcuQuy+kg6J5P89To9J0Jm8MG4oAY8hT5HSfIdhaV5+ElnCfff/992qaDwq0BhgyFAnBQOQ+O3N7z0CUm1720kkAIjSGoAgTwv76668qv4qpQGuCIoARhmxn6z5TMHTzThhCyn9dSRftA57nC4IiQBCGD8NChCSOeI+A81KlSqXdghuGMDIQMTVRhCFqREYoaiMDrculH30GGBo4cKB44okn1DQoUYYhaq8TijC33dq1a1UwLmJPMFQ/qVAECwlBEdxnsBTVqVNHu6UI5zxDEfW+nTUD0U4t/LxiIPKjmvxNUoAIzY8iFDU4ooHYpVRxU7QXDN17772BTsfhs0uU+DNAEQLaKWkjQRHcaemgyAuGAAtRhiESwglFn3362c7RZ0uXqFwvyF/kLnGEIWoDQVGVKlXUhL+FBEVegda6LUUMRdTzdtYMRDu18POKgciPavI3SQIiSBBJKGogocjhn/eCofvuDXZuMp/dIeufAYqaydQHTiiCRQGj0dq3b59iKQIM3XLLLeLDDz9U64dlKC4wRII4ocg5JH/p0qXFoCgdDPXq1StFF1p3FOsiKDpSVJHJG8OyFGG7f/75p3IpIaaI3Gq69IK7CpYibJem+SBL0cEypshxCge6C0XJG8OzFCG3Go0+++STT9TcZ8jC77xmBdrgLFbGQJSFSBkWYSDKIE6mr5IGRGhr2FCEyWBxkXG6zxrsgCLA0E033aRmpca+kpvs2OOOxdtYlT33BBQ1U0Pw4Z6E28wNRU4YsixLJdCMupss3UFwQhHaSxmtnVAEGBowYIB48sknU9xkcYIhaj8AAJmrK8vkjYUERYABgiLKU1RHBlonFYowIWzUoIiBiM5CfzUDkT/dEmchIhkyQRHmNdL19IM8RYgp8oKi5cuXi5tlzBDygaDYMHRs/GCIdN5zzz3TQhHFzMAy5IShSy+9VJv+tF+66kxQBMvXgw8+mAJDSDoZRxhy6hcmFNWqVUvFqJm2FAGKKKbICUW6R5+F5T6LGhQxEDnPwNxfMxDlrpn6RRItRCSFFxQhIRlu4hjhYRKKMMR8woQJal4h7F8SYIh0TgdF//3vfwUsRCZhCIHtr732mnKv7LHHHrSLgdbpoAi5pD744APbMgQY6tmzp1Y32R9//CHGjx+vsmhXqlQp0HY6VwYoqlK5ivhq+lfGA63dUIR8QTi38WCjq7jdZ4AiJCTdW07A27Bhqgs8yH0g99nMmTPFokWLBEafTZ06VcBFjWuGrmsWhuRHCYoYiPLrVQxEPvVLMhBBEjcUrVu3TgCK9t57b6NQhIBjbBslSTCkGiT/Iyjatm2bIPcZJg1FodFkui1DgCEAyMMPPywwUuhYaXnTCkWNGou99iqr2gv32apVq1R7YRkzAUMrV64U999/v2ozJmcF5JuGIkwHAXew7tFnTiiCpRVQVKNGDe1Q5HSfAT4xohLXFIy40wUnbihCUPu0adPkNatiwUARA5G6lPj+L/1YX9+r5B8mRQFkpO3YsaN6ykKbcIHp27evePXVV9XTvK52AjYfeeQRFXRL20BW5+OPP14FHtNnSanxlHnqqacqN6yzTY0bNxYXXXSRthsIbQuTZ/7vf/9Tgd1jxoxR04Js2LCBvg68LiNjqK6//joVMO7M1l27dm3RpUsXrZYhNAYw8vTTT6sYLljjMA0KXLU6S6fOncTdd98tkEwT5eOPP1YWDJ3bxLpPOukkccIJJ9ibAfx+9NFH9ntdLzCH3emnn25nY4fVBpZAPODoLLDInXnmmTbQw1LUv38/8cYbb2i9ZqHvPvroo+KUk09R5yssY88995wKbtfZXl53sAqwhcinnkm3EEEWuFD69+8v8ERNBaOhMFoI1gudMUWwRMEUDdfRwoUL1cUMI2bwFKjzKZPaabJGG/v06aPa6twubiLI5A2LTaY8Rc7f+HmNm3Tp0qXVDRoB3sjvggu6bksRLH7oT8jgDfcgLAnLli1Tx91rSL6ftnn9plq1aqJ8+fLKlbN+/XqVIBR9zIilSA7JB4Ced9554rbbbrNv3F77me9nOJZIbPnAAw+oUY2wzHTo0EEgTYVOfXEsAZxDhgxR83+hHYCywYMHi/322y/fZmX8/SuvvKKC88nqiIVxDiH3l4nkjbhmAToRUI8RoUgWabKwhSg/tRmIfOqXdCACDHXr1k0la4REGBUFGIHZHZYiE1CEfC64wGAEEo0+w/DWJEERYAg646mdYoZatWqlhvNiaD4CVGGt0QlFgCFYo7yg6JhjjtF208b2cHwRW4Rh2s7RZ/hc100bcIn2IpAf8S2AIvQvU1CEXFRwg5Ytmz45pc/Lkv0zgiG4QtF/YIk755xzxMiRI7W66QiGYHVDQDcKLEUPPfSQdjgADCFNBa4XKJhcGdcQpAIwmdEa5+opp5yisuerHTH4HwNRfmIzEPnUL8lA5IYh3BThwjr//PPFrFmzFCSZhKI2bdooN4cbimAe1xWP4LNb5PQzWArcMISh9bAcoCD+IUwoQoAqLEW6oQgAuNdee9kxRbAEYki+CSiCpQjxLSahCNcOXTFa6DdeMHThhRcqlw7ieHQVwNDYsWOVC5Jg6OyzzxaPPPyIHHp/sK7NqvW6YQgWqREjRoizzjxLfD/zewW7pqAIfQogFkZhIMpPdQYin/olFYi8YAgmd8wVhospLEXFoOgA6T47TN+QfLjPAEW//PKLwASLsCTAUlS1alXRqFGjWEIRYKhr164pliHA0CWXXKIsB3AnoTihCDdtk5YixHuYgCJYiNC/PKGolbQUlS+e0drnaZvysyJL0VHSfVauGBRBf7g94lbSwRAC5nUGjm/fvl0888wzavJhwBAeVM466ywxfPhwcWDNA7XK6AVDSOOAoPVq1auJpk2aqn4MC6ApKNLa4AwrZyDKIE4WXzEQZSGS1yJJBKJMMEQaOKEII3RMWYqSBEVeMISAW8AQxQph9BkgAYWgCCOECg6KlklLkWYogs5wz7ktRXGDoijBEAKbFQzJWEOdJRMM0XYLCYoYiOio+6sZiPzplrjEjK+//npKzBDcJGQZcktEUATXhhOKEJyLkWm63FgUaB1nS1E6GLr44ottGCK93VCEG55pKAKMhW4pklAEtxpcEToKIDTuUIRjhMlwKWYIVje4ycKwDJmEIbiclyxZoroF3GTDhg1TliF3P1FQJNMrYBLrJFuKGIjcRz639wxEuellL50kC9Hrr70uunbragdQA4ZgciYLhd1oxwuCImSPBqCQpcgkFGHbcXKf5QJDJDWgCAHAgEzASaFCEUafMRRRr0itvWDoggsuCA2GAGEYhaqzwDLkBUPIf5SuYHQhrH5eUFS/nkxWKadciXthIMrvCDIQ+dQvKUAEy5AXDOEmXFLJBEWY7FFXIUvRr7/+qqbzICjC/kQ1psgPDJF+iK2JGhRhIlqMEtNRvGKKELdmEoow+gyjsxCzhlFLeDiIYkxRmDD07LPPpsQMwTIEGKJcSzr6BtbpB4ZoXzJCkcYM3rR93TUDUX4KMxD51C8JQKRgSAb2AixQcJODyTkbGCLZwoQiWAycUIRU/UVQBIsK7WH4NWAIc7EhGR8NrUfMkJebLN3epoMiZPE+7rjjirnb0q0n18+dQ/Ld7rMkQxHlKYoyFIUNQxjiTgHUZ5xxhhqJGmUYor6fZChiIKKj7K9mIPKnW+xjiABDuEnDn46Cm9tDwx7KCYZIujChqGXLVmLhrwvFj7N/VO6zIiiq4qsd1J4g6yBgiPYnTCiC5Q1wxFAUDUtR1GAIQ9x1w9C4ceOKucmQ3yiTm4zOHXedVChiIHIf6dzeMxDlppe9dJwtRMoydHPXVBiSF5ZGjRvZ7cv1RVhQVLHi3ioBG8AOQd5wnwGK4N7IFAOVa/v8LB8kDNH2CYpK7VJKTJ021Y4pMmEpAhQhf04YUIRYKmQbxvGF+wwJQpF4T3egdRQtRWHDEGJ3kAkacW2wDAGGcD3UWQBDSFPhDKAGDOXjmk8iFDEQ5dcLGYh86hdXIPK0DAGG5M0u3xIeFFWMHBR5wRCmLsjFTZbueNhQJEdHAf4o0NoEFB3V+KjQoAjtxgS4KVDUorCgyAuGkDAViVN15hnC5MPPP/+8stAQDHXocIZM9hhPGKJzi6CIcqs58xRhaqK4FQai/I4YA5FP/eIIRDphiGQkKEIwqnv0WT5Pc7T+dDVmSofFIAqWIswF5o4ZAgxholbKM5SuHdl+TlDkHn1mAooQY+a2FK1csVK0O7qd9kDrYpai35aLFi1aaLUUYWQS8hQ5A61hqYAOJgOtAUOYm6xXr14q4BvB5yZhCBaanTDUQWW+jqNlyH2OJQmKGIjcRze39wxEuellLx03IDIBQyQOoAgTZRYiFAGGbrrpppQA6qBhiHSOHBTJSYCPPvpo41CEuap0QhGgk6AIyRsRaI2UDyahyAuGMLTelGUoEjB0/Ali+MPD83KT0bnjrpMCRQxE7iOb23sGotz0speOExCpmCH5dJcSQB2Qm8wWxPUiTCjCzRFDpZ0xRXAn6I4pMglDJDegqFGjojxFmHDX6T4zMc0HLEXYLmatxzQfmLG+XTszlqIvvvjCdp8lGYo8Yeh8mWfoEb3TcZCbLAowdPzxx6sh/Uj8qqskAYoYiPLrHQxEPvWLCxARDDmH1iOlfhAxQyVJFyYUYUZxJxQhEFgnFHnB0JAhQwJ1k6XTW1mKJBQhsVwKFK1dZ2Tus913313F9jihqG3btqJMmTLpdjmvzylPEdafdCgCDI0aNUr07t3bdpOppIsJhiF3niETMEQdMu5QxEBER9JfzUDkT7dYDLtPB0OYJd5U8YIiwAmG6OqOKTIFRelgCFMnBBUzVNLxKrIUFU10a0PRjG8FYopMWIrCgaImyj3nhqLmzVuIChX0TPORzn22dOlS9ZARZEwRwVCfPn1SYUjzRK1uyxD6cIcOHcTIkSONjCZzZqA2CUN0jsUZihiI6Cj6qxmI/OkWeSCKAgyRtG4owk06KVAUBRginT2hSE4Ii2lVkgpFiFVDfiQnFP3+++8CMFyhQgWSJtDaBBQ5YQgT+sIqBssQrLtBQpdbGC8YOv300xUM1ahRw714oO/DtAy5G+IFRRjhWLNmTRHl0WcMRO4jmdt7BqLc9LKXjrLLLEowRIIlEYq8YGjo0KFqUk1TliHSl2ovKJoxY4aCIsxRt+uuu9KigdaU0ToMS5EbijBXVZyhaPMm6SYbPUrAMsQwpC9mqKQTwA1Fa9asUa7hKEMRA1FJRzXz9wxEmfVJ+21UgSiKMEQihglFzZo1V6OCkG8EeWxgodpnn33U6CHav1zqdDCEp/iwYIj2n6AI78l9BiiCZU43FCFwHdCFp2lnTFGbNm20xhQlBYqgGYbWhwFDzz33nJ1nCH24EC1DdA5RHTcoYiCiI+evZiDyp1skXWZRhiGSOSwo2mefiqJZs2aBQNHM72cWG1oPy1AUYIh0BhTRnHSmoajJUU3ErrvtqjJLExQhf01SoQgwVrZsWUFD8jG6ERPRYuBCLu4taIUA6jvuuMOoZWjr1q0pSRcBQ6eddpp47LHHRCG5yejccdcERTiuGJwSZUsRA5H76OX2noEoN73spaNmIXrttdfU0517NJnJAGpbnBJehAdF++QNRRhafuNNN6bkGYoaDJH8TiiCxQZxKaYsRcjbA0sRptvAjR6Zu01BEVIBIIkiLIGm3GdeUITpRbKForBhCBO14vgoy9BppzMM0Um0owYUwfoZdShiIHIduBzfMhDlKBgtHiUgihMMkX4ERXPnzhXz589X7hwTgdZwk3lZipDpGjfxTAUwdMMNN4jJkyfbs9ZHFYaoHQRFlmUpN1YhQREsNhs3blRQtGLFCpUsVGegtRuKaM41PJRUqVKFDkmxOgowhFnr2TJU7NCkfBAHKGIgSjlkOb9hIMpZsqIfRAWI4ghDJHmUoAhupUxQpCxDN96YAkP33HNPpNxkpKu7tqFou4Siz3daihCw2759e62B1oBM3GgxCsxpKWrdurXANBw6CkZkAU4Q4E1QhOO3UmbSxudRgqJ0MISJSzNBVL66wU2GmKHu3bsLgiHEDLGbLLOyUYciBqLMx6+kbxmISlIozfdRACIvGHpY5iiJopssjYwiVChq2kwsXbZUzZ4O9wrcSl5Q5GUZAgxhHinc7ONQbChyWIq+lUPyEWgdBhRhEk3dUARLIEERjm/UoEjB0OMyZqhvasxQGDAUZswQph/RmYE66PMzylDEQJTf0WYg8qlf2EDkBUPIURInGCLpw4QiWDAQAAv3BtwrbihKAgyRzgRF27dvV7E95D4Ly1KkG4oQwxRVKAIMPf7446Jv374pAdRhwBCNJsM1TWfxyjMEGIpyXp90ekQVihiI0h2x7D5nIMpOp2JLhQlEXjAUN8uQW9AoQhFy67hjhu69995YWYbcOntBESxFgCJMzAp3k44CLb3cZ2tWrxGtWrfS5j4jKEK74D4zaSkCjDlHn1FMUd26dcW4ceMiA0OPPvqo9gzUSYIhOj+iCEUMRHR0/NUMRP50C23YfToYatiwoc+WZPeziRMnim+++UaraTtqUPTmm2+qNiMg+cADDxSAofPOO0+rmwyjsXDzQKZlXSUdFGEWd1NQhFFgFFOEOed0ZpYGFGH9bijCdhs0aKA1VscLijB4AOexM+mibssQJv1FfqNevXqlxAzphiGcO88884y49dZbBaY3QcF0HCYsQ1OnTlXD5JFIUVeJGhQxEOV3pBmIfOoXhoUoLBgaP368+Ne//iXeeecdsf/++6ubiE/ZSvxZlKAIwaYoJmHo6quvFs8++6zKLH3iiSeWqJffBcKGIuy3E4p++eUXgQlhdQU8e0ERLDbYLixXOgOY3VD022+/CQAKAA25q0zA0LBhw9QEsYgZU0PrZQC1CRh68sknVeA2RvmhmIIhXKv+/e9/q2tWnTp1xMEHH6y2r+O/KEERA1F+R5iByKd+poEIUxHg6Q5WGhQEwsJNptsy9O6776okhHiaxhMtRmPB53/IIYf4VK7kn3lBES6oJ510kihfXs+kndgrDMmHa+eDDz5Qk2niM2zv7rvvFpdeeqlWy9DPP/+sdJ4yZYrACCC4d1BjDjJdhaAI81dhFBhiigAILVq0ELVq1dK1WaUx1o/0BUuWLFHbmTNnjhoFhn6ta/QZQdGWLVtUP0a7582bJ5AvCAHeumAMDQQUYftoM44roOSss84SIx4ZIarsm35Ifr4HAdtCskdkvoZFDgXwd9edd6l9ynf9mX6PvnTNNdeoGD0sB3179+6toCjT7/L9DvmU+vXrJ2AhwnUD10xcr0xDEfYD1yy4TU0VBqL8lGYg8qmfaSDCSYWssXiqxizxJmBo0qRJomvXruqmQTLhCRM3azx1mYIiJNq76667VGI02g8dNZL4IcgVyddQAEN33nmnuPbaa7UNTcd2AEOY4fu9995T+Y3wGW7WSKKIGm4sXQVQhIRz2A6gBK6Nc845R1ssEdqB4e9wP7711ltqu9S22bNnqyzALVu21ApFrVq1UnA/ffp0u91//PGHshTtvffetDuB19guXEhIVglLCWaPr169euDboRUChmBtBAzhvKWCwQMr/1gpjjjiCLHffvvRx4HXeMDA+vGAgdgtADfcZhhRdsABBwS+PVohgBrrR2wcBkwAir7++mtjUIR+XK5cOXXN0v3ASm2mmoGIlPBXMxD50y2UGKKDDjpIPb2fe+65WmN5IAlg6Oabb7bhABcxTEOAmxluHgAzE1CEmyNGwcByoLMAhq6//no7zxAuqEOGDJFPuNdqhQMkpQQM/e9//xMY/VW1alWV3XjRokXqiR4XclNQBGsUYAhWMl0F/WfgwIFqhBXcRgB9WKTwOcUUYWoEnVAEVxX6E3RFzBZu1pibDi5SuM90QhG2W7t2bXGjzGmlc1oMgiEALs5XWKQAvmj72rVrVTJU9D3dUISHN1wnYKWBvrAI4lzTDUVwc6NtTigCAB966KHaLUXoux06dFBT1eg6j9Ktl4EonTLZfc5AlJ1OxZYybSGiHUAMTy7zI9HvcqkJhhBjgYKbBOINcLPEjQMXNVNQhLaizTqLFwzdf//94pJLLtFqGcINCRY4JwwBFnATw9M0LHGABIKidu3aiV122UWLFLAUwY2FG6au4gVDaP8DDzyg8gU5Y4pw0wYoYb90FLQTegIUcKMEFNH0IgAHnVCEQG6d7rktW5B08VnVjwiG8FCB4OZ69eop96hJKAL8AERgGSsEKIJLUqflLdP5wECUSZ2Sv2MgKlkjzyXCAiLPnQnwQ4wmw03KCUMI+kTAK9qMi7lpKAqwecVWlQ6GYIXDzVJXIRh6++23bcsQYOiKK64QlSpVUlYi3KRNQpGutmK9gKEBAwaoeBayDKGfIS6OplOBO4naS3Ou6YQixPRg/WFAkS6tt0oYevbZZ8Rtt91mW4YAQyNGjFBuJLIIAU5MQhGsRIUERbqOb0nrZSAqSaHM3zMQZdYn7bdJBKJMMERCJAmKwoYhp2Vo0KBBCobIQgMLAiYGTQIUZYIhCjhFnBgCjwFFZLFhKKKzLrsaweKIGUoHQ7QWQBGsrpGAopnSfXa43piisNxnpLfJmoEoP7UZiHzqlzQgygaGSKokQNGsH2YVixmC6yYMyxBg6PIul4vddk91VyUBiuCySWcZIhiifkVQhFgq01CEuA9YiuCeNOk+o7bnW2cLQ7SdSEGRwZgiQDYFWpuIKSK9TdUMRPkpzUDkU78kAVEuMERyxRmK4A687vrrUgKoAUOIkTLlJkNALwKoFQxdXhyGSOc4QxFgCKMDMeyb3GTdunZTbjI3DFF7w4IiHHdAEWK04gZFgCHEB91+++3KTQZXoNNNRtq66yhBEabIQQC2ztFnsBRhG0mGIgYidy/P7T0DUW562UsnBYj8wBCJEEcoUjB0XXRgqEuXLiqgmDT1qgmKMFwaT7XOQGvEdukKtPbal2w/AwzdKVMWIDuyDUNyNF3PXj1LzMtiQ9G2nZYiml4EGad1BVqngyLMuaY70DpbXd3LecEQJmqlmCH38u73gCKMdsMcfs6YIsQK6kwJQDFFyH+FvoKBGgxF7qOT+3sGotw1c/6CgcipRg6vkwBEXjCECWJxk822eEERLnK6h+Rnu3/O5bxihkxZhpDCANlzUyxD0k2G2dizKU4oggWDoAjupahBEcHQE088kQpDPUuGIdJCQVHzZkovgkCCIsQamYQiWBSiCEXpYAjTYsAakm1hKFqhHjR0D8nP9njksxwDUT7qCcFA5FO/uANROhhq06ZNzooQFOEJDxmtMbTWRJ6iXHYUliF3nqEHH3xQu5sM2XrdMITM19lYhtztIyjCnGNRhSInDCF1AFxjyLMEdw6S1eVSAEWwCAEinVCE9hc6FBEM9ZSQCc3hJoNlKFcYouPBUJQMKGIgoh7tr2Yg8qdbKIkZfe5qsZ8FCUO0cjcU4SIdFUuRl2UIMNSxY0etMUOAoZtuukk4h9YDhi67rGQ3GenqrqMMRV4wdMstt/iCIWo3oAhD48OAolYtW6XEFEXFUuSEIYzgyxeGSGsvKEIWdWRbZvcZqRTtmoEov+PDQORTv7haiHTAEEnohiJYisKGIq/RZCZhCG4yykBdBEOXZe0mI13ddRShCDDUv39/gck8yTIEGMIQ8FwtQ+72hgpFcroNZ6B12FAEGBo7dqwKTA8ShkjzqEER9ocDrenolFwzEJWsUaYlGIgyqZPhuzgCkU4YIqmiBEVRsgwNvnuwtAzlD0OkcyYogttT52g52geq//zjT20wRNuIEhQhlmntmrWicePGWjNaU9up1g1DtB1ACM5jZ6B1WJYiJIHl0Wd0ZEquGYhK1ijTEgxEmdTJ8F3cgMgEDJFcUYCiSMHQ4MGi82Wd87YMkb5UExStX7++WEyRKSiCFbBf/362ZQjBzt27dw/EMkTtpJqgCPN0UQwV4ASj73THFGFiVqelSEGRnF7EFBSZgiHSGhASJhQhBhFWRxp9FoalCFnT4xZozUBEPdhfzUDkT7dYxRBhFnUEtjqn48BoMj8B1NnKFSYUhQ1DTjfZYMBQ5+AsQ279AUW4KYcBRQqG+qXCUI8ePbTAELXbC4owcWioUNRIr6UIMPT000+L3r17qylQKGbo4YcfFjVr1iRpAq/TQdGRRx6pPabokEMOUQMzCIpgKTIFRZjTbunSpUrruEERA1F+pwEDkU/94mIhCgOGSNIwoChsGKIA6n333VcMGTJkBwylZqAmfYKqw4AiwFDfvn0FLsCIGYJlCDCEiWnzjRkqSRcnFAGGkFnahqKmckh+WT0TwsINmc5ShGlWdEwIGxYM0THwgqJ58+YJhiJSKFo1A1F+x4OByKd+cQCiMGGIZDUJRYChG264ISUDtckAajcMXaYsQ3phiHR2QhFBAtxKCOgO2n0WJgxRewFFyCwNYHC2d+NfG0XTpk1LTP5I68m1NglFXjB0+mmnC92WIbcmDEUr1aTDcXCfMRC5e29u7xmIctPLXjrqQBQFGCKxTEARwdDHH3+sJgjFyBQTMLRgwYKUofWwDA0dOlQFULvnJiM9dNWZoKh169aBBFpHAYZIPyS1dEIRJavc9Ncm0aRpE61QBD1RAJ2wUCGmaN26dWpC3iAsRV4whDxDpmGItGYoigcUMRBRj/VXMxD50y3SMURRgiGSVycUhQlDN954o51niGCoc+fOgmatp/abqgmKcHPGTRo3a9y0MYt8vlC0atWqYm4yuMhMuMnS6UdQhOlBYCmyoWiThKIm+qAIAdZuKML2oXu+gdaAoTFjxog+ffrYMUOYmywsGCLtAUV40Pj000/taT7YfUbqRKNmIMrvODAQ+dQvqhYiLxjChVRnAHW2EnpB0eeffy4QQIk/P4VhqLhqOqAIMIQb9FNPPWXHDAGEenTvIcqVzy0DdfE9zu8TQBFie6IERX5jitLBEAZB6AygzvYIMBRF21LEQJRtT/ZejoHIW5cSP40iEKWDIXqSLbFRBhYIEorSwZDuWevhJouaZch96IKEonQwhOH15cuXd286lPeAIvRzBHhHxlKU4+izqMMQHVgvKPrpp5+Uu7BatWq0WOA1zY/oHJLPo89SZWYgStUj13cMRLkqtmP5qAFRHGCIpA4CijLBkM7Z371g6J577pGjycJzk5Gu7joIKPKCIWSfjhIMUbujBEVwU65bj5ii7IbkxwWGSGs3FGGaGoYiUie8moEoP+0ZiHzqFyUgihMMkdz5QFHUYKhTp06hxQyRnulqgqK1MolgrjFFq1atLuYmAwxhSo6oWIbc7U4HRbAc6Y4pIrc0YIhimTZsWF9ioHU6GHrooYdErVq13E2MzHuGoui5zxiI8js9GIh86hcVIJowYYK6QTmTLiJmKEpusnQSExQBcBYvXiwwgqmkmCKCoY8++kitlkaTwU0WhmUoyjBEugOKjjrqKBUI64YixN4g0Z+7rF69WiYC7KWCewETe+65p5qkNcowRG3wgqLp06crd1oYUISkmcjb4zX6DDCEuKw77rgjJYA66jBEWocNRUiciDndkNEaCRVNJG887LDDBFx1lLwRLry6deuKgw8+mGQJrWYgyk96BiKf+kUBiOIMQyQ7dDz88CPEDz/MLBGKwoKhX3/9tVjMENxkcYAh0jkXKAIM9eoVTxii9hIUwVIDCESNm2d4lqINxSxFBENIcEkTtWI0WVxgiLQGFB144IH26DNyn2G0nYmYIoIiAEqhQxEDEfVKfzUDkT/dQh92nwQYIukBRXiyg5UrnaUoTBi6/vrrBU3HgaH19957b6xgiHTOBoq8YKhnz56RdpNR+9w1oAhurKhAESxFNPqMYCiuliG31rCauKFo7ty5KgUBQ5FbLX3vGYjy05aByKd+YVqI3DAEd8gjjzwSCzdZOrmLLEWHe0IRhlMjA7VpNxksQ9iuG4YuvfTSyMYMpdOXPgcUwW20Zs0aMWPGDDtPEb6vV6+ect0gBw65yQBDmAcvqjFD1K50NfJBeUER+hTOm7Jly6b7aV6fw33rFVMEKIJFZfy48aJvv3hbhtwCMRStVPOvhek+YyBy98rc3jMQ5aaXvXRYQOSGIdzcTMDQZ599JubMmSMOOuggW4OgX3hB0SeffKISHyK2CMVUzNDs2bPFtddeKyZOnKimvyDLkG4Y+u2338TUqVMFhhjrKgqKjmoiYA2Ci4GSNyI4/9133zUKQwAEZBevWrWqKF26tJYmp4MiBJo3bNjQM7YniB0BFLVt21YlxXQGWiPmZPz48WLFihUqfsuEm2zr1q3igw8+EBg1uP/++wfRPM91eEERrhuAT9OWIgB/jRo11Iz1njsbwIewikUppoiBKL+DykDkU78wgMgNQ6YsQ7hJXnPNNeK1115TCRQxp4+u4oYiWDIACSgmYeiqq66y50SrUqWKuO+++4QJGII1BkHxpfcoLZq3aK5LZkGWIicUITB127ZtKoAaMUS6LUOAobvvvluNZINbq5mcmFUnFAFOaJoNbA+B1gjkx0OFV8BzUOK7oQhu4Y0bNxqFoccff1xcd911ygILC1WhQNG0adPUw4XOa1aUoIiBKM+zVpqOLR1/0uRuyYuO+pMnv7VhwwZLXgAt+VRmyZucJS/ElrwYWTKY0Pr999+tZcuWWYsWLbJkQJ4l81lYMmbEkgnWLJkm3vrwww8t+aRuyckzrVdffdV66aWXrOeee86Spn1LujQsKYHxvxYtWlhy4kw5I4KZIqHAOvHEE+12ShiypCVB+8bl07slL6D2dmvXrm1J15X27eK4N2jQwN6uhBLr+eef1665zDNkHX/88ZZ8ulfbljO3W4899pglYz60tnn58uXWRRddZElrhtqutBBZ0qqgdZtYOc4zebOwdUa75dB6dZ7q3Lic4sKS7jhLuqzUtitWrKjOb53bxLqlhcQ69thj7fbKEXbWiBEjdG9WXWM7duxobxfXLPQzXO90FmkZsuRN0tpnn33sbZ988smWjO/RuVm17nHjxlnyAcfergQyC/cF3UXG+FllypSxt4tr1pQpU3Rv1pLWbEtOLGxv94QTTrBw3TZVcD/CfSmM++HYsWPVuYX7vHzoUMdZB1foXmepPHmKf25IAbgUEM+CvCSmLEOfTvtU9OjRQ44A+8FupbyAi65duwq4snQWTNqJSVLxNFupUiUxZMgQIYFB69D6hQsXCgRQSwBXbg4JQ2LgwIHiyiuv1BozBAsYrDGvvPKKgGsD1hsca5jidRZY32CNQqwUClw8cBNiSg6dMUPyoqksQ3D14jWsQl26dBHNm+uziKF9sAqNHj1aWYbwHjPXn3TSSeLUU0/FW20FAdR4cneeMxiB9cADD6jzWdeGYe17+eWXRf/+/ZWrjLYDiy8sgEikqLMgFQZGzMHqi2OLY7zHHnvo3KSy6r744ovqWNOGcM3C+YU52HQWWAKHDRsmJBQJCWHqHMZ1m0uMFNBFXGwh0vNcIOMArOlfTdezcsdaYX1q1qyZ/bQh51GypGnYfi9Hy1iTJ092/ELPSxnQbL311lvaLUMSCiw5m7glb5KqjbBISTeDerLX07KiteIJ0mkZkjBkyZuIsqzq3C4stNINakkYUe3FEzWZYWdUAABAAElEQVQsQ7DY6iywEjstQ/IGacmblfbt4qlVpkqwoK+8PFtyBJp17rnnWvPnz9fZXNV/Ro4cackYNLVdWKSOPvpoS6YC0LpdWIZeeOEF20IDy58M9rX3AxrAYgVrvO4yadIkZe3XvR1YriVoKp3RPliGpJvdfo/rmXSh6d4NS8ZbGrk2uhvCFqL8vV2YEJFdZvLkwQmUy59pl5m78+t874YhOfrIkk+VFi5sTjeWKSjS2Vas2wuGnn76ae1usijBkLSEaXeTAYZuv/12201mEoaktXEnDO22u3XZZZdZMm+N1q6Fa6sbhs4880ztEOYFQ3ATyrQW1hNPPBEKFGkVWq7cDUNw87///vvquoXrF13bTUGR7vZ6rZ+BKH+WYSDKEYToxEoqEKWDIToBkwZFUYIhOaO5dssQ4vfclqFCgiHEaBUiDCFWjErSoCgdDFF78TDnhKKmTc1Yimj7pmoGIgaiggmqNnFSlQRDtA8IcE+CpcgLhhAcqDuA2ssyxDBEvSu4Gm4yp2WoEGAIAw8okBlusuOOO04FzrtVTQoUlQRD1O7iUNTUiPuMtm+iZiBiIGIgCuhMyxaGaHNuS5GcqykUvzntT641w1AZa9CgQdrdZBh14naTyfnQjMQMuWFIBvUm2k2WLQzRufLkk0/G2n2WLQxRewFF9evXt91nGBFmIqaItq+7ZiBiIGIgCuAsc8MQgi9lzqMS1+y2FMUFiuRospQA6sqVK1uwDG3dsrXENuezQJiWoX/9618pAdRJhqFNf22y5KhES+YWUjc/WIYKDYYQM+R0k6Xrt15QNO+neekWj8znucIQ7TgGaSQVihiIGIgYiOhM91m7YQi+9mxgiDYXNyhyW4YAQ88884yFQFSdpRBhCKPWKM8QAqhNWIaQ+ywqMHTWWWcZCaDO1TLk7ueAIoyqpPjIjmd3tObNiy4U+YUhandSLUUMRAxEDER0lvuo3TCUrWXIvam4QFFYMITEo86h9TLHjyXz/xgJoA7LMsQwFA8YonPZDUVnn312JKEoXxii9ibRUsRAxEDEQERneI41Mrc68wz5hSHabNShiGHIXMyQG4a6d++uPWbIyzJ0+eWXW3I6EuqiWmoMrX/00UftWBzkGYJl6Oeff9ayPVopLJrI1p9NADX9pqQaGa2dlqKoQRFmLHDmGaKh9SW1K933SYMiBiIGIgaidGd7hs+DhiHaVFShqNBgaO2atVYYliFM0eOEISQ/NAVDgwcPTokZYhiiszK3OqpQFDQMkSpJgiIGIgYiBiI6s7OsdcEQbT5qUAQYkrOJ2xmoTcUMFZqbDDAkp/ywY4YYhuiMCLZOZxmaOXNmYBuKGhTpgiESzA1FcrLfWI4+YyBiIGIgorM6i1o3DNEuRAWKCIaQjwUBo2HCkJy3S3vMECZOdluG5GzyFiZS1Vm8YEjOgWfETRaOZWhLqG4ymo6C8gwFCUPUT7ygSLcbkLbtrHXDEG0rCVDEQMRAxEBEZ3QJtSkYot0IG4oYhspYSYchtM85tP6KK67QHjO05e/wYOjZZ58tFjOkA4boHA4birxgCHM56ipxhyIGIgYiBqIsrg6mYYh2yQ1FDRs2NJK8MSwYWrFihXXhhRdayHsDixRGkyXZMoRM0G43mQnLECaODgWGtqTCECYCNhVAbRqG6Bx2Q5GJ9mLbbhg67LDDLJ0wRO2NMxQxEDEQMRDRmZymDguGaHdMQ1GYMHTRhRelwNCIESOMu8kwe70Jy5CCoR6pMUOAo5UrV9Kh11KHCUM4njRrPWAIo7B0u5EQMwQYMuEmS3fAnnrqqZTRZ7qhyAuGMFGrqRJXKGIgYiBiIMpwlQgbhmjXvKDo448/pq8Dq8OEIbdlKOkwBEsQJV2ERSwMGMIQdyNuMmkZKlQYopPTFBR5wZAJyxC1k+o4QhEDEQMRAxGdwa76k08+CTTPkGv1Ob/1gqLJH0/OeT3pfpAOhrZt25buJ4F87uUmMwFD69auSwmgNmUZQr6fsGAI041QzBBg6Morr9QfMxQiDCGDepiWIfcJ4gVF8+fPdy/m+z3Ax5lnCG4yk5Yh947HDYoYiBiIGIjcZ7F8HzUYol2c+N5Eq0GDBvYUAYgpCsJSVHAwJEeNOUeThQlDyDtkwk0WJgxRskJzbrJtajqZKMEQncO6oMgLhsKwDFE7qY4TFDEQMRAxENGZu6OOKgzRbr733nuBQlFUYKhcuXLKrbJp02ZqqpYaQ+gBQ5gbDIHbgKHBdw/WPrTeyzJkAoaQCdoLhhYvXqxFX1rpFrIMVdlX6Rw2DH3//fe0a6HXQUNRVGGIhHZD0VFHHRXJPEUMRAxEDER01so66jBEu+qGIliN/FiKwoIhWEScMUOAIUzfgIBfncUThmSGZt15hgBDyDjtjBkKC4auuuoqyxQMOS1DmPBUdwA13LuebrLvg0u6GFT/HDNmTEqg9ZlnnulrItuowxDpFQcoYiBiIGIg2nHGumHo0EMPzWnWejrxTdX5QtGCBQusDh06WO6ki7pjhgiGEMMCC03SYQiQ54ah22+/XbubzMsyFBoMddQ/+zv67dixY4vFDEXJMuS+NnhB0S+//OJeLO37uMAQNeCdt9+x6tevb7v8o2YpYiBiIGIgkmdr3GCILjB+oYhhSLrJpGVo/fr1JKWW2g1DgEBTMDRw4MCUAGqGIS2HOO+V+oWiuMEQCRVlKGIgYiAqeCCaPHlyymiyqFuG6MJCda5QFCUYGjlyZGhuskKCoauvulq7mwz5fpBEM8VNxpYhOk0z1rlCEUaOuUeTAZDiUt5+++1IWooYiBiIChqI4g5DdAHMFoqiBENhxgyFAUM9e/bU7iZDILPbMnT11YUFQ8cff7wVZTcZnbPu2g1FZ5xxhuXlPos7DFG7owhFDEQMRAULREmBIbrAlARFBEOI28EfTdSKi4DO4hUzlGTLEGJ3nDFDcJOFAUMY1RUWDJ1zzjnWvHnzdHYryytmKK4wREI9/fTTtoUN56gbirxgKMw8Q7TffuuoQREDEQNRQQJR0mCILkjpoAhPmri4OmEIAagMQ6RcMDXDUCnLFAwBHpx5huIOQ6oHymeTdFCUNBiiM84NRXAFTps6jb42WjMQMRAVHBD973//s5o0aWLDQdxihkq6QrihqG7dulabNm3s9sIyZAKGli5danWUMSTO0WQmLEOrVq2yOnfunJpnyEAANYbW33DDDfbQ+jAtQ8izpHtoPeAPgenOmCETMIRYJfSjxMHQjhMbN2U3FDVv3tw64ogj7HPYVAbqn376SXuqBDTbC4omTZpU0qUu8O8ZiBiICgqIxo8fbwEQyFKSNBiiK4Qbiqi9uHmZgqHTTjvNHtKPofWmYOiCCy6w4C5Cm1XSRQVDG0gaLTVgCNNgYE4ybBcw1KtXL+MxQ2i3CRhCrBLyKBHsYrumYGjo0KH26DmkjEiEZcjVK3FjxnlKsEnnL2pTMPTll19aRx99tNW+fXsjMVnuPEUA3nfffdeljN63DET5A1Ep2Um5xEAB+cQs5CzmYs6cOWpv5U1ayNgO8c9//jMGe5/bLp544onillu6iwoVKtg/lDcvcc0114hOnToJeSOxP9fxYsiQIUI+9Ql5+VKrlxYbIYFByOzQOjZnr3P48OHilVdeEfLCpj6TbkJx8803i7Jl97KX0fFCjq4SMiGgkNYLtfpjjz1WbVda43Rszl6ntHaKhx9+WKxZs0ZIKBFyaL3o16+fqFGjhr1M0C9k7I7A8X3ggQcEXqPIhwzRp08fcfDBBwe9uZT1yfn8xH333afaiy/kTVPccccdQlpPUpaL+xucnzhPcc7gvKVSvXp1gT5+3HHH0Uda6q+++kpeP24RMrRAyISvQgbqi7Vr12rZFq305JNPFt26dRO4LqMsWrRI3HTTTWLhwoW0CNcxUICBKAYHCbuIm4QMMhXly5dXe7xhwwbx8ssvC5k9NyYtyH43ZcyQeP3111IuYrh5vfnmm+oil/2a/C2JC3a9evXsH0+YMEHIJ0D7va4X8mlWyBgEe/WffvqpeOXlV+z3ul4AQFs0b2GD5rfffivGjRtnA5Ku7bZq1UqccsopQlrCjMGQtPQpCCMYQttkALX473//m9LfdLQZDy8XX3yxkJY4tXrcNN966y3xxx9/6NhcqOuUs9YLaem1oROgABg64YQTtO4XwZDMzaa2U6tWLXHJJZekPFzp2IG5c+fKa9brQo4AVauXWd1F165dxYEHHqhjc7xOTQrs2rdv3zs1rdteLT1p4wP3a7ynPzwZ0x8uWPjDUyv+6HO8xuf0ftmyZeKLL76wt2XqxT/+8Q91EddtraD2YDtNjmoiKlWqJKQ5WACIAEM4EVu1bKU+p2XjXAOG8KT1xhtvqGbss88+qm1yegrx+++/i+nTpwtpdhe40OkqgCEA6Lx5P4tly5YKGdcjcKGtWbNmCigFvX20CdYKOYO4kNOSqBv0V9O/EpUrVRaNGjUKenP2+vDkLuPS1DaxbfQtnFOAb5mNV1lv7IUDfIGbhowPEzL7r7j88su1W4YAQwMGDBBy5KCCv9q1awvpLhQynkhMnTpVWQABpAA0HQXnMKAI1orvvvtObfezzz5T1zPov9deei2BOtrktc4P3v9A9Li1h/jmm2/U14ACmaZCnH/++V6LB/YZrotyhKRwwhAgDJZWnQXXYFyzYFVGka5Ccf/99yuLts7teq37P//5j1iyZInXV1o/O/vss9W1CxZB9HP607pRDStnIPIpqmkgwm4qKJIXTmx7ypQp6mkEUAQ3WhKgyA1DuLA8+OCDyvwOqwWAyCQUHX744WL27NnK/P3nn38agyJACLTAscXNE1AEENYNRbDYwGqB/uSEIkCC0/Xh85Tx/Bmg6Mgjj9T6BI+HJ8DQwAEDbRiSMUPi8ccflzCyXci8P8agCK5BWOT++usv8fXXX9tQhAe9pk2bxh6K5Ggyceutt9owhIeXUaNGidNPP93z+Af1IWCoR/ceKTD00EMPCTnHWlCb8FyPG4aqVasmhg0bJrp06eK5vO4PGYjyU5iByKd+YQARdhVQhJgDJxThqV5Bkbyh4cYZx+IFQ3jKuuyyy1RsR506dcSMGTPEb7/9ZgyK8GQLa5EbiuhzXTrDYtOgQcMUKIJlTDcUwRrXrFkz41CkS0esFzAE6wTiSFasXKHOn3PPPVfI4GZ1bI877lgFSSahCOfwMccco6xTOK6wUMFSFHco8oIhxKfpjhnysgyZgCFccxGrRJYhwBBi0+CiC6swEOWnPAORT/3CAiLsbiYoatmyZeygCECHCwu5yWAZQvCp8ykLAa9eUAR3Sy2N7jOCHycU4SZGn/vsPiX+rHr1aqJhQ28ogkUFfUBHSRIUpcDQip0wJIfbq74E/XbffXeBIHK40UxDEWLG5Hxxyg3shCJA6Z577qnj8GpbJ2CoR48eApZcFFiGwoCh2rVqC1MwBPdclGAIujMQQQX/hYHIp3ZhAhF2WUHR4d6WojhBUTYwRIfIC4rgdkgqFOGJM2wogkvAlPuMjnMQdTYwRNsJC4rgPnND0eeff64sRnGCorBgCHFucM85Y4ZMwhBGSaJEwTJEfZmBiJTwVzMQ+dNNuawwTFjXk3o2u4VtI87Fy30WByjKBYZID4aitcqiAPeZCUsRgrtlgrtYQZEXDJ133nnCaRmi/kR12FAECxEC91HjRo86DlDkBUNIpSDzK5G0WmpoBIsUwVBtGSAfBgzBvR22m8wpMAORU43cXzMQ5a6Z+kXYFiLa7bhCkR8YojYXKhRBMwq0ppgi3VAkswyr0WdxgSLA0IgRj4pBg2TM0A43GWAIObzgcs1UwoQimURQQVCcoChMGArDMjR79hwJYd0FWYYAQ3DtX3rppZm6ldHvGIjyk5uByKd+UQEi7L4TijB8GLkwcPNE3AtGDkUt0Bo3dTzdUczQvvvuWyxmqKTDEi4U1U8JtDYRUwSzPOAnKlCEpJkY9aZr9FlJx9/r+yIYGiFhaFDOMETrywRFGP2na0g+3GeAIplFW6XVIEsRYowApVGLKQobhpB0EcWUZQjXUlyzogxD0IOBCCr4LwxEPrWLEhChCXGBIoIhJDFDAQzde++9KQHU6oss/gsPig5QcUumA60ZitJ3CuQyGzEiPxiitYcJRe3atVOjzTByyglFLVq0iAwUhQpDPW4Vkz/ZCUMY4q57aH1cYAj9l4GIzmJ/NQORP90iEUPk3nUnFFGeoihZioKEIWp7WFCEaRcQzF0Mig6QQ/Xr78xyTfsZVM1QVFxJwBBGNDktQ0gCmI2brPjaij4hKEIWaaR7AJxQ8kbdliIvKELeoihAkRuGDj/scJX5W3fMEILN5fxzDEPpOuyOzxmIShCohK8ZiEoQKN3XUbMQ0X46oShK7jNkfb5VZq8NwjJEbaVaQdHBMk/RdzvzFGH0GXIIwaSuq6SDIvpc13adUATgRfLGMGOKwnSfpYMhwFFJMUMlHR+CIiTldEIRPkdmaZ3uM0ARMvKTpQh12FDkhiEMrTcRQG3DkMNNxpYh797LQOStS7afMhBlq5RruagCEXYzalCEuaIQBKkDhuiwAIrwhykRKHlj0qEIMTzQFkktU6Cood48RV6B1mFAkU4Yon4VJhS1bds2MlA0adIkdQ5TniGMbg0LhpC9/qyzzqJDpKX+8ccfVXujHjPkbjwDkVuR3N4zEOWml710lIEIOxkVKDIBQ3RQiqCojoSiwrEUeUJR5UoqfxH6gI6C5I1hQ5EXDF1wwQXKbZavZcitWdhQhGBxGoqPUWgbN24USKthKtDaC4YwR5gxN5nDMsQw5O6dqe8ZiFL1yPUdA1Guiu1YPupAhN0MG4q8YOiee+6VE3l22aFi8BVbiorcZ5UrV9YORYhpWbBgQUqeIhOWIjcMoRddeOGFanqOoGGIemiYUIQJcAFFlLSRoAgjSMuUKUO7qKUOC4Ywlcntt98unKPJGIZKPsQMRCVrlGkJBqJM6mT4Lg5AhN1PB0UwCescku8NQ/eoWc0zyBrIVwxFZqCoYsWKKtDXJBSFAUPUKQmKVq1aVSymqGmTpmKP0nvQooHWSG0AKELbnVCEDOI6oSgqMFRLTs2DmCF2k5XcrRiIStYo0xIMRJnUyfBdXIAITfCCIsSd6IIiJPHDiBBnzNA995iBITpkYUMRtF28eLFAQC4Cnk0EWnu5z3RbikxDEeJWMHoMSRdRdFuGqD9RDSg6Rk7M6oai3XbfTc1Wv8ceeqEI++GEIuQc0wFFhQZDs2bNUtcsZ8wQ0oF06tSJDn0sagai/A4TA5FP/eIERGiigiI5RBb7TaPPdEBRFGCIDmmUoAgB3jVq1FBD9Wn/gq4x+izJUIS4FScMXXTRRVrdZOmOT1oo2k0/FLVu3VrtFkERYBtQ1LpV68DcZ2HCEB6k7Ok45EStJixDSYEhdAwGonRnbXafMxBlp1OxpeIGRGjALqXk3GcaoShKMEQHLB0U1a1b18iQfKelCFCEfoP8RboKQRGOhXP0WdwtRV4wNGDAgLyH1vs9DuQ+cw/J380QFOEBB3E2yI8EKFq3bp1yq+UbU+QFQ5gj7IQTTvArVVa/Q1ucMGTKTZYkGILQDERZdbe0CzEQpZUm8xdxBCK0CFCE/CFBW4qiCEN0BL2g6JtvvhEmoAha46JL7jNs14SlqHHjxirYOQlQFDUYon4F+IH7bPXq1QLD0Sl5Y1yhCDCE6SmQcwkFQ+uNwNCnEoZud1iGZO4wtgxRL8utZiDKTS/30gxEbkWyfB9XIELzMG9SkFA0d+5cNSIkzJihkg5bIUIRMirj2IQNRXDvINYI7rxc5z6LKgxRfyNLEWKKTEMRYoeCshSRZcg0DH366afq2mG7ySQMmRhN9sMPP6jtxj1miPoh1QxEpIS/moHIn26RnLojl6Z4QRFGC8HFgxwncLFkU7xgaOjQoeKKK67I5udGlyk0KKpataoIC4rQh5yjz+ASyRWKHh6eGkB98UUXizDdZOk6KyxCxx5zrFi1Op5QFJZliGEoXY/y/zkDkX/t8EsGIp/6xdlCRE12QxHiEHKBIjcM4QYcVRiiNjMUFQ3Jr1KlitY8RYCffKAIMDTo7qJZ63HsLr74YnHXgLtCixmi/pOuxiizMKEI57IzpgiZyzFUv6SYIrdl6IgjjjDiJvOCoQceeECcffbZ6SQO5HO3ZWi//fZTk0vHbTRZOjEYiNIpk93nDETZ6VRsqSQAERrlF4oAQz179rSH1gOGhgwZEknLkPvgeUER3B2HHnqoOOigg9yLB/YeQ+/DiCnyshQhuV9UoQhD64vB0F3RhSHqIICiY6SlaLWHpahZ02ZC55B8wCfOZYDGli1bBGLV1qxZI9q2aStKlylNu5hSEwzRdByAIcTu6A6gDhOGcM0iNxlgCOlAkgJDOLgMRCldPOc3DEQ5S1b0g6QAEVpDUIRgX1ysSrIUEQy99tprSow4wVDR0RNq3jOAEc19hvnPGIpIneDqXC1FCobkxKyUZ0hZhmIAQ6TY7gqKvAOtmzXTD0WI0cI5jADvTFA0ceJENaqr0GDorbfeUocKMARrdufOnenQJaJmIMrvMDIQ+dQvSUAECbKFojlz5ohevXqJOMMQHXK3pSh0KNpf5ik6TN+Q/IyWogYN1QhE0ibIOh0UYU60I4880g60jjsMkWaUpwgWGkAJLDbI/QVYMQFFiGmaNm2aDUUYBdeuXTtRunSRpajgYGjmD6Jnr54i6TCE/sdARGehv5qByJ9usQ+q9mp2JijCvFUrV65MDAxR+6MGRfvvv79yq9H+BV1ngqIGDRooMA56m1hfRihqeKR49NFHVZJF9DGUuFmG1E47/nNCEawwsNgAUsKGIswNhnw/hWIZmjlzprpmFQIMofsxEDlOQh8vGYh8iIafhGUhwhxhGGqra6brdFCE5G/vvfeeePvtt5ViptxkcJ3gDzdUXSUdFOEYI1eRrpIupmivvfZSo8N0bRfHrkmTJilD8hFThBgXfI4+oKPgGGKoONIAIG8V5uJCIDDclk8//bQCbmwXMGRiNBlulpiMFhYVHQXrbd++vYrlIUsRoGjbtm1qmo+SAp797hOgCw8wbksRdB4/frxxGAKM3HnnnWLKlCmqSbXl0HoTAdRhwdDy5cvV1C57772330Po+3cMRL6lUz9kIPKpXxhA9OWXX4ru3buLCRMmqAttuXLlfO595p95QdGiRYvUjQy/xA118ODB4sorr8y8ojy/Xbp0qXq6GzVqlMphA+uJruIFRR999JGagwwJ6nQVLyjCdnGzBDzoKl5QhJs1bqK4meqCItwk3FCEG9fGjRtVUwmGcDx0lrFPjxU33HCD2gSSWOqCIqelyAlFmzZtUqPwdEERHUcnFCH2DzdrFFgDhz0oA6hP1JuB+uWXX1b5fsgilXQY+vXXX9U1C2CCh4vq1asrvU39x0CUp9LSlGvp+Nu8ebMlT3r1Jy92lnwatOScO5YcDmpJ37ol/dqWTHtvSRO59fvvv1vLli2z5E3Xkk+Plnx6tOTwSEteQCwZIGh9+OGHlvR7W9I6Yb366qvWSy+9ZD333HPWmDFjLHlRs6QExv/kTcPavn27nIDaTIFWHTp0UO2UT4BWx44dlWY6t75161br+eeft2ROIltfCWHW6NGjdW5WrXvJkiVWly5d1HalRcySI1+0txcblhfwlPZK8LVksjrt7UUfl4Gets7ScmHJi5v27UoYsZo3b25BY5xHElisxx57zMKx11nkjcP65z//aW8X2z733HMtaQHVuVm1blw35AAC1V5pjbNkQlHt28Q1kM5ftFUCpyUnD9W+XVyDZU4wu19h2xLCLWnt1b5tOYrNkiM37W2XLVvWkpZA7dvFPUaCtb1dnFdjx47Vvl2ZssTeLs6nU0891ZJxidq3SxvA/Qj3JRxj03/QVyYnVff5v/76y8L9XwdX6F6nHtu4PBpcglUA1qAzzjhD4AkbJvc33nhDXH/99UKCZLAbcqwNpvfzzz9f9O/fX20XT7N3yRE/V199tWOp4F9KGBJ9+vRRbhSsHW6N0047TWCeLp1l7Zq1AtYZBMOioP2XXnKp9tw38uKhrH6YF4sK8shgFAxcHDoLrF/IBo0arli0HROoShBW/UzXtg888ECBIOq2bduq7cqbhzrmui1DcM3dcccdAn0MBS4tWC10l3feeUclPaXtIL0DUjDoLogZgrubCgLZB8lRfCeeeCJ9pKXGSDdcK2CVogKrGHSgODH6POga4QQnnXSSsmSbGk0GyxCuWS+88IJqDnQ+9ZRT1T4E3T5en0YFdBEXW4iI24OrcayeeOIJS8ZiqCcAshRJ11JwG/FYkxwlYz3yyCPKcuDxdaAfyTm/bMuQ7PbKYiFzo2i3xsFiKQHTki4Gpa2EP0veONUTT6ANdK1s01+bLJkbxZIjgNR2sX3pGrSf8A455BBr3Lhxrl8F/xaWWDmTum2xgWUMT326LUWzZ8+2+vbtq6zBwbcqdY1OyxD61imnnGJJV07qQhreSai16tSpYx/Thg0bWjKuRsOWUlcJK5AcxWdvV06YasRCI12vlhzVZm9XumctnE/QHNesCy64wJJxgak7G/A7XLPgSYDFV3eBZeiSSy6x21upUiV5vRyhe7PF1s8Wovy9XRj9oMW0xUBUrL8G8kFYUBTIzpewknQwZGn2THrBkHyKVu7eEnY5r69hWnbDkBwBpNwZMs7GvsCagiK4z+CaJPeZKSjKS8QsfwxXDbnJCIZMuELdMAToBDDoLm4YkjFDRtxkbhiSljAFJnDDli9f3igU6dYY60eIR3EYesTEpottg4Eof5ZhIPLpbzUdQ+Ts/YAixPGYthQ59yHo114wJCd5DHozxdYXJgzJfE4pliHAEOIfUGCxCQOKELsHKEKMC8AhCVDktgwhtoNhqNipkPcHgCHpArVBHjCEmE8UPCADihCD6LQUIX40riVKMAQNGYgYiAomqNp90UgHRQhGjltBMD0FUONiicBekzAEMz62C7M+LEO4eOsssAxlgiHaNkMRKeG/dluGGIb8a5npl14wBOuYsxAUuS1FcYSiqMEQdGYgYiAqWCDCCZAEKHLDEKxeYcCQDMSMFAzh+KJEBYrgbnrmmWe0xxQVtTqY/wsdhhCrZGI0WTYwREc0CVAURRiCvgxEDEQFDUQ4CeIMRQUHQxuzswzhuDpLOijCBVBncbvP4gRFDEPRgyHqq3GGoqjCELRlIGIgKnggwokQRygCDF1++eV2vIEpyxByZSB3FbnJYBkaOHCgdjcZ8tA43WQyYZ916623ypihdTiEJRYvKIJLgqGouHQMQ9GFITpa6aDot9+iG1M0f/78lABq5GeTqSOoSaHXDEQMRAxEO05DgiKZ/8IOWkTyRgQrR60sXLjQurwLw9C6ddnBEB0/hiJSIn3NMBR9GKKjBygaOXJksdFnJpMZ0r6UVEcdhrD/DEQMRAxEjjMZUCSnubCiDEUKhlyWITmvkaMVel6GaRnq3bu3PZqMLEO5whCpIuf+slq2bGlb1jAk34SlaNasWSmjz+A+e/aZZyMVUxQVGGrTpk0oQ+vDihmSyTRVH6Q+mkvtBUUyGazRDM8l7W8cYAhtYCBiIGIgcp3NUYaisGAI057ceOONxdxkf2/+26VesG/hJgsShmjvAEXuIfmhQdGz0YAihqFwLEP5wBD1Z4IiTFfjHJIfBUtRXGAIWjIQMRAxENFVxVFHEYqiBENyJnUVd+WQLPCXumCIdjRSlqKQoSgsGEKOHQABbuL4Y8sQ9c7c6yhCUZxgCIozEDEQMRClufZECYrcMASXngk3mZdlyAgMbdBjGXIfaoYiS01F4cxALee8M5J08dXxhQdDAD6CvyAsQ+7+7IYiTGMD99ny5cvdi2p/HzcYgiAMRAxEDEQZLg1RgKKFv8oAakfMkCkY+uOPP6ybbrrJzriM0WQmYGjDhg2WnOTR2mOPPdTNAzFDPXr0sPzGDGU4vOqrQoYit2XIGAxFyDI0YcKEkrpI3t8jz5BuGKKdBBQ9+uijFrnPAEWY+8wkFM3/OdqjyUgrd81AxEDEQOQ+K1zvESfjFWiNYe+6i5wBOhIwtNdee1ly5m3tbrJ0MLR+/XqtUhciFAGGnJPgFgIMIWiaLDQmA6hNwRCdJF5QZMpS9PPPPxcfWj88OkPrSSOvmoGIgYiByOvMcH0GS9Hjjz9uYRZmXFCRgwdD8nVCkRcM3X///a49C/6t2zJEMITZr3WWsGCI2hQWFP3444/FRp8999xzWkefFSIMOWetBwyZsAwhzYMbhsaNG0ddTmvtBUW6LUVeMDR8+HCt7Qxy5QxEDEQMRFmeUbAUmYKiQochuMvgJtNtGXIf+s8//1wNyafZ6uvUqWNkSL5JKCpEGHJahgBGJqbj8IIh99xk7v4X9HuCIsxtiAc5nTFFcYchaM9AxEDEQJTDVQgXGN1QFBYMrVy50rr55pvtmCFYhu68807LtGUoLBiibuAFRRgNhYulzuKGIrizgrYUjR07NhJuMszoPm3qNJ1yqnUDfKICQ6YsQ25R00HRsmXL3Iv6fp8EGELjGYgYiBiIcrwMpIWihfnHFDEMhWMZcneBJEKRFwx999137qYH/t49tF7BkAwy1l3ee29iMRgy5SZr3bq1HauE0WRhwRBprBOK3DBUpUoVK05uMtIINQMRAxEDkfOMyPI1LjCPPfZYsZgiDI/3WwoRhu644w57NBksQ927dzfuJkt3vJIERWHC0EEHHWTDgSnL0MSJ0YAhuFzDhiHq37hmjRgxwnK7z/KxFCUJhqATAxEDEQMRXTFyrIOEogULFhQbTWYigBpusq43d7XdZGXLllVusq1bt+aoRm6LIzbIC4YQWB2l8sXnXxSLKTLhPps9e3ZKoHU+7rMowdBUA24yLxgyFTPktAxFCYbonNq8KTgomjdvXsposjhbhkgfBiIGIgYiOht81EFAkScM3ad/NNmKFSusrl27WhRADBjq37+/1tFNkDguMETd4YsvvrBatGhh64QbXVhQ9Pzzz+d0fKIEQ8jFo7t4wtCE93Rv1kIAddRhiETYFAAUJRGGoA8DEQMRAxFdKXzW+UCRG4Yq7VPJMmEZYhjK7WDHEYqiBEOmLEMNGjSw3XMmR5PFBYao12/atMnTfbZ06VJaJG2dVBhCgxmIGIgYiNKe+tl/4QeKisGQzHF03333Zb9Rn0uGDUPIPI0hwIgZuuWWW6youcnSyRonKIoWDE1NJ2lgn8MyxDCUm5zpLEWZoCjJMAT1GIgYiBiIcruOpF3aC4rOPvtsC8HS7hImDHXr1s12/8BN1q9fv5zcMO62ZPOe3GRxhSFqY1hQNGf2nGIxRencZ1GCIVNuMoYh6qG51bAUPfJI8UBrLyjygqGHHnootw1GfGkGIgYiBqIAT1JA0ciRI63KlSsrKwhltHZCUdRgaNu2bQEqUHxVgKG+fftacYchapkXFL322mvq6ZKW0VHPmVMyFD3zzDPF8gx99933OnYnZZ1ov3s02dSpbBlKESmib4qg6BGrYsWK6ppFyRudUFQIMITDw0DEQMRAFPCFKhMUhQVDv//+u+VlGWIY8nfwv/zyy2KB1mFA0X777Wc9//wLysLnBUPfMwz5O8AZfhWnAOoMzUj5KhMUFQoMQRAGIgaiggMi5ArauHFjygUh6DdeUHTqqaeq+c9ocknMi2YiZggwhFgdGk1Wrlw5ZbHRDUOrVq1Ss9a7LUO6tf/rr7+sGTNmBH1Ii63PDUVIwIfM0rp1dVuKAEU33HCDhZr6FiZq/f57/ZahF198MRTL0FtvvVVQMUN4kEK/1lm8oKjD6R2sM844w+5XGFpvwk2GdCD4M10YiBiICgqIfvjhB+vcc8+1LrvsMuvPP//Uer65oYhuVqhNwxBt2yQMYUh/qVKl1MWUAqhNwBBSB9SuXVvBidYDLFfuhqKqVatao0ePNg5FdHxRm4IhTGFDsIvttmvXzjLhJvu///s/q1q1avZNOumjyQD3Z555pnXVVVdZa9eu1dql3VDk7FemYAiuuptuusk65ZRTLOTjMlkYiBiICgaIcDE577zz1IUUF3JAEWZ211kIisqXL29fwLFtxNToLpiDDHOR0UWNYAgnvc6ybt06ZZEiGEKNOdJ0wxC0vuuuuyzEbaHNBxxwgJqYVWdbsW5A0RFHHGHrDChCwLNunWEpwkzqZPlDm0866SQjliFMEOuEIcQPffzxx7qlVvl+qlevbmsNMIK1SHdZtGiRdfTRR9vbNZV0ETAEMMCxxUPFbbfdZqGf6yyAol69elllypSx24vXw4YN07lZtW7AEKydaC+uG3h4/e2337RvlzbAQJQ/EJWSB49LDBSQwYJCJtgTctJSIWFBvPDCC0K6koS0FGnbe3kRE5dffrmQJ7nAaxR50glpqRIy0FrbdrFieUERNWvWFP/4xz+EhCEhY4iEBAYhb6DatisDqMW9994rHnnkEdVO7MMVV1whBg0aJPbcc09t2/3777/VNocOHSqky0ptR97EVHtllmJt28WKmzZtKh5++GEhrVJqO9JFKeTIPfHmm28KeaHVtu1DDz1UyKkYROPGjdUxldNiCJn9W0g407ZNrPj1119XuuIcoiLdG0LGmgiZ4Zw+0lJL8BISTOw+LB9yhJwUV53PWja4Y6Vyugshcw0JXEMOOeQQgX52zjnn6NykkPPMiZ49e4p33nlHbWffffcV9evXt68juja+ePFidW2SYKQ2IR8wRLeu3YS0+OrapFqvnEJEDB48WPVpfIBrlhw9KOQDhtbt8sqDVWBX+bR/Z7CrLL4254XV/Rrv6Q83W/rDjQF/uEjhjz7Ha3xO79ER5ciZ4hvV/Alu1NIMbF/cNG9OyCdadfPAiSZN+wIn/KxZs4R8KlEXWV03bFxE5ZO8umh/++23Qj7hiblz56qLTsuWLYUc3aGl6QAfOdO3wIW0efPmonfv3lq1BgzJmCh1s8DNsnTp0goG5ZOlurhpaaRcKcGQPA+FjLMQuIBLl6R6LZ8u1Y1FxvcI/OkqgCFoPX36dCHzPCnIlpYjUatWLVG3bl1tuktriYJ8nP+Ae0CRzgIYwnZ++eUXtRnpRlHnEc6ljz76SMg4JnUTAwjrKDJNhGjfvr06Z3Hu4thPmTJFPeQ0a9ZMHXsd20VfxsMUzlVptdAOQzL+KwWGatSooR4qunTpoqN59jrl3GQK5vGwiAIQBAgNHjLYXkbHCzcMVahQQch5DdW+6NhepnX+5z//EUuWLMm0iJbvZIoWda3A9QvXbvrTsjGdK5UnpaXjD6ZRmC/xB3cDEthhCDNcP2vWrLFWr16t4mAQfIbAWUzSB9OuvFhZP/30k4V4mW+++UaZmT/88EMLycvefvttNe3ASy+9pGIsxowZY5sopUa2idTEa0yHIKFMXsvNFmiJbNDIwYN2mnKfoY88+uijKUPykacIAZNxL3CTIZ8RhuxCU3kDUaPadAeC4hzBsZQwq7YLd9mVV16pJtR05qaRsGKZmM/qq6++Shl9hkBrCRGh9POg+xRG0SE2i64NiBnCZx07drRjxeSNzJI3FAvuWp0FAfuIqcHxxv7g+GOAAs6xuBenmwxtkzBkPfXUU9qbhdFkF198sX18TcYMkZsM7UUfgus7jIL7Ee5L1MdN1sgfhn6N+zyum7i26eAK3evEU4qWHWcg0ndKhAZFm5MHRV4w1LVrN+2jYtLBEC4qKJMmTUoZicRQ5P988oIhSrq4fPnyyECRdNfGGoqkm8w6+eST7Rsyw5D/PuvnlwxE+bMMA5Gkej8kHZaFiE4UQBGeKt2WIt3DPQHQSbEUecNQV0Mw9EAxyxDBEB3j999/PyXgmaGIlMm+zgRDtBYEvkbBUiTjA624QlFYMARvQhiWIemWSvFOhGkZon7MQMRAlNIp/YCN39+EDUQ4CaIGRXB3xqWEBUNwIXu5yVavWu0pHUORpyxZffjaa68Xc5ORZci9Ai8oevLJJ7W7z5A+4+qrr7bdZ3GEorBgKCw3WRRhCP2ZgYiBqKCBCCdBlKCo49kdrThAUZgw9MADOy1DiFlCzBDi6TKVsKBIBlkXiyl64/U3YhFThNgnd8xQOhgi7b3cZ4AiOZCDFtFSe0HRPffcEwv3WVgwBMvQRRddZFv3TcUMuWFIBm6HFjPk7owMRAxEBQ9EOCmiBEUItI4yFCGo3x1AjSSMugOo3ZYhwJAc0l8iDNFFL0pQFPVAaz8wRDoDiuSQ9JRA6zChSHeAN7XbTw0YQu4osrIjZmjMU2P8rCqn38z7aV5oMHT99dfb7SUYAohEoTAQ5Q9EPOxens1+iulh95n2kYbkY1ivfAq2h+RjOKgcTaOG9Wb6vd/vMMSyUaNGAsNMP//8cyFHGAj55CYWLPjVHubrd906fictQ0K6q1S+EKRvwHDkf//732LIkCFCJm/TsUm1ThlArfKT0NB6pDLo3LmzePDBB9XQ4Gw2jKHx9erVE19//bVAriAMyZcjeoRMsqd1SD6Goh911FECKReQ4gF5rzAkH/uDXEI680Jlo4t7mTfeeEPlrJJQrr5C/0duqVatWrkX9XyPtBYYGj9//nwhk0eqcwlD8qtWrSZkVmmVH8vzh3l+iLQZSG8BfeXoWjUkH+cy8n8hvYWuVAB+dxtD62+99VYxYcIEtYqUofX6UoUJDK3v26+vkNOuqO0idQLyV8ns0Fr7Ivo+8gzJ+Em1XQzpRwoHnNNROgd42L3fHl30OwYin/pFCYjQhDChCMn1AEXIB1UERUV5imSclbY8RbketjBhCBfRfGCI2goIqV+vvpj+9fRQoGjGtzPEkqVLdkJRLQlFdaMDRelgCECRS/GCosmTP1ZJ9kxAkQyujzQUpYOhyy67TCscAIYAPzLtijqcpmFo5MiRartRhSHsHAOROkS+/2Mg8ild1IAIzcgERUh6hyzXOgosRYAiOcWHDUWUvDEKUBQmDCEbcxAwRMdNQZHM+IskimFYimCVQuK3qFmKgoIh0hlQhKzSsDSRpWjy5MmhQJGcoV5lmY6CpShsGJJzwalDFAYMSbeYsuhG0TJE/ZaBiJTwVzMQ+dNNTSlhMlN1trvphCJcSGXsispoDfdZIUJRkmCI+kDUoKiWtBTVDdFSFDQMkc4ERTL5qJATdapzCVCE7OlwFetyY5H7TAbb25aizz77LHQocsMQHgoxrY0pyxBgCFBiEobuvvtu8dhjj6ntRtkyRH2WgYiU8FczEPnTLbJAhOYQFMEiVMhQhLmi5Kgu4zFDmzZtFiNHBuMmS9c9owZF2J8wYop0wRDpHiYUIe4pKlAEGOrRo4eQMwYoaQBDAwcOLDgYgstOFwhTn8unZiDKRz0hGIh86hdFl5mzKVGEIsxJts8++zh3U9trwBCClhEIiQDqMqXLiGuvvVbNVaYzgBoWuZGPjhR39L1DzUfmJ4A6W1EKHYq8YAjz0eUaM1SS3gRFmNDYpKUIDzSAIjnVkQqml0lRBSxFcFFjslZTN2YnDMFCYxKG+vTpI15++WXbMgT3s4kAai/LUNRhCP2Ygaiksznz9wxEmfVJ+23UgQg7HjUoWrhwoZqoVTcUuS1DAKBrrr3GCAwFFUCdtuO5vogcFBkKtE4HQ4hZ01EARXA5A4owQz3Al9xnjRs1FruU0jO0KmwoihoMyXnDtIIgRpPFFYbQ7xmI8jv7GYh86hcHIELTCg2KilmGAEPXXCNkojutQ+uVZUiOQgkygDrbrhk1KKpVq5aa+VrXcGTTMETHAYMGAEUAeycUVa5SWQ0q0NVegiL0baRdIEsRLEQ6LUUKhrpLN9mkicpCE7ZlyAQMISbq8ccfT4kZioNliPooAxEp4a9mIPKnW6RjiNxNIihCsKY7pgi5T5C/SEdJN/pMl6WIYAhPeMpNtgOGhg4dqh2G3JahTp06iWHDhmWdZyhf/aMGRdgfHTFFb775ZrE8Q3CT6bIMuY+LFxR98sknonJl/VCENmKQAEERcn/pgiLAUPfu3YWcZJhhSIJnXAoDUX5HioHIp35xsRBR8wBFSLDnhiKZmVclhIs7FK1dI2OGhj2ozN1OGArLMmQShugYA0IOO+ywUIfkL168WCCPDpI3Bm0pAgzJrOJqKDzajKSLSLRpCoZIZ4KiRYsWqRGcsA6GBUXI/QXLVJCWojBhqHfv3uKVV15JiRnSbRlCGgk8RLktQ4hfwkNdnAoDUX5Hi4HIp35xAyI0U0FRYwlFe6VaioxBUTmZp+jLouSNyFMUlKUIQacAELdlCDCEbNS6Cm6EYVuG3G0DhIQJRbiZ6oCidDCEQP0wSjooqlSpknrw0Ok+AwCuX79efPXVV8p9BihCadumbd6xTDO/n+lpGerc+TJpjdITJ4V9R9LFMGBo6RIZMzTobjFq9KgUN1kcYQg6MhBBBf+FgcindnEEIjQ1dChyJW/MF4q8YOhf//qXmq7BJAxBV9NusnRdN0woQoLOoKEoajBEugOK4HJetGhxiqUoVCiSMU5+YSydZQjTzOgc0RYWDMEyhJih0aNHCzkPmJ10Ma4whH7JQERnp7+agcifbrGKIXI3ETdv3LjceYpMWYowYgcuFUzzgSzAgKJmzZrlPCQ/SjB06aWXGo0Zch9T9/ukQFFUYYj0LoKi1soqNmvWLDX6DO4zE1AE6xjOIaelCMPiEfidKxTNnDlTzc0lJxFOiRkyAUO9evUS48aNM+4mSxoMoU8yENGZ6a9mIPKnW6yBCE1WlqI0MUWIR9AdU+SGIsRj5AJFDEMld9wwoQjxanI29LzcZ14whESbYbnJ0ikOKMI5A1ehE4qQXqJJkyY5w0m67bg/xzkKLTZu3GhDER40coUiwFC3bt1EZGDoejm0fld9gcxelqHut3QXcbYMUd9gICIl/NUMRP50iz0QodmZLEVhQBFuKE2bNi3RUsQwlH2nTQdFhxxyiDjooIOyX1GOS+63337iKBmv9t33/qAoHQwBmqNYvKBoypQpqi/rhiJo4heKwoah8ePHp1iGrr/+eq2BzEtkzBAybD/xxBO2mwyj6Xr36a11u6b6LANRfkozEPnUL64xRO7mhmkpwg3TbSkqCYrCgqG//vpLTsexM88QdIuam8x9bOk9oOjwww9XVgTnhLBRhaK4wRDprKCoVWuxZOkS8cMPPyj3mUkoQh+FhQh5ilAjLgYT1KZzn4UJQz179hSvvvqq2kfMTdavXz+hH4aWeMIQXHbIKJ+EwkCU31FkIPKpX1KACM0PC4pgFodrJVsoWrNajiZ7aOdoMqQQMBFAHWcYou4dKhTJY4yAXbhFnUPy69WtJ4Rr4FJcYYh0Ll+hvJpuAxmPCYqmTp2qAnZh/UwHJ/R7vzXcZ7AUuaFo27ZtnlAUNRi67rrrtFpo4CbzsgwlCYbQdxiI/J5BRb9jIPKpX5KACBKEBkUy6Vk2UIRJLh966CF7aD1g6Oqrr9Y+miwJMERdPGpQVLNWTVGvnoSiHSXuMETtqFChgg1FAA+kZzAFRYAuNxQhL5fTUuQFQ4MGDhImAqi9LEMmYGjAgAHiySefTHGTJQ2G0P8YiOgs9FczEPnTLRExRO6mO6EIk0jiwoogUYw+0xlThCG9maAIT9UMQ+6j5e995KCoZhEU/fe//y2WdBGT80Y1Zqgk9QmKli1bJsKAIkAYuc+mT5+uMrcDimC1cgdQY7RVp86dtA6tn//zfBEGDMFSVygwhD7JQFTSmZn5ewaizPqk/TZpFiJqaCYowogWxEnoKOmgCEPyMd3I8OHD1UXdlGUIie+QuZbmJoMuJmKGEP+BmyhuqLpKOihCn65bt66uzQoVaO3hPkNcE6bf+OWXX9S2kYEaMARrh84C0Ie7VlfBMWzZoqVYtjwVipDuAueSTvcZArkBRUjaiD4FKEK/ev7551NGkykYktPM6MwzNGPGDBUj5I4Z0m0Zmj9/vrIoF4JliPowAxEp4a9mIPKnWyItRCSFFxRhCDUubMhxomu2ei8omj17tvj2228FYiEAQ1dddZW6eepMuggYQpZrPFlu3rxZuROLYOghrXOT4caFzNcw5VetWlXUr1+fDkngtRcUwSqI7TZo0CDw7dEKvaBo2rRp4s8//1SLmIKhDz/8UGBKiDJyvjud7QUUIbM04IssRR999JEK4kVmaXcMFemUb42YIkAR+i9BEfIVARIwLB/wawKGsM1rr71WfPDBBykB1LphaN68eeK2224TL774YuLdZM6+wkDkVCP31wxEuWumfpFUCxHJQVAEtxmeLrds2aKe4GFyb9++vahYsSItGmjthCKaiBYXcIwCwaz1sCTohCG0F5PBAojQZuwPMlDDZbf33nsH2lbnyhDnMWLECDV9AUbaIQgZc5NhJJiuQlA05ZMp4s9VfwrEaeFY15RuLJ0wRlCEGzVAAccXBdapUaNGabcMzfh2hrjyqivVqDuMAqux//+3dx7gd1Rl/h9aQBARQucPhtB7KCLF0JZVAXFhZUXEXUGa0kICoYfeQVoQnuVBBVTKqrsUFVZB+tJDDaEIhN4S6TwCwv3P5/x4b+bOb26be8+0+z15fpnbZ+Z7zpzzmfd9z3uWygSKCOzl+qGuSd4IjJHp2lcxKDJLkem8yCKLuDZOu/ZpGeJmhhsYy400YsQIZ7HxDUOkIGDG2v/8z/84GKLvmDhxoru26NeqXAREvdWuv+xXvR2Xvl0ABZjizuraQAKFDvWWW24Jjj766OC1117zdoQGP/vtt5+DHxZY3GmnnTILoAa6DIb+5V/+xblvfMIQ+7rkkkucrgxeFGK3WJuNYFyfBbg9+5yzg8UWW8ztZvr06c69wSrnPguZ0nGLRXMh0c6ABt9lwYUWdNDHfmjH4yeMDy677DKvuzWLzLbbbuv2gzUQCw0WQZ8Fix+Wkl122cXthnZM3h3fMIQl6sgjj3QwZOcHfLGGIUDos2BNpl3Zwqy4Jp977rngnXfe8blb/XYFFJCFKGUlVt1CxJ17dAVo4h7Ia0JnxmBN3MeGG27oLQaDzgz3nHVu5ADCZearMBif/9Mwz9BRk1zsBXeS3/rWt1wCN5Zh8FUMhhikgE8GDbTmdaaps7QJlpNlllnG1yEEK664opvthUUOKxF1i3vUd54iLFS4q6ZMmeL2CYBjNeL16Oyzfp84UIAbC7cKfyx/AXguueSSXi1FI0eOdJMHsABiPcGdhbuQuDyf2bc5XwCUNrXNNtsEBx10UB0W+q0tvwcMTZx4cHDVVf/jbqJwG3Ku9B24DXGPbr755t5y/2BBRk/2icuO8542bVrwxutvOIsc11dViyxEvdWsgCilflUGImCIu1eCigESOmzM3Nzd3n333c5ihOk/Cyii4/za177mICFlVbX9GjDEnTrJ4XgMDBEzxGtZwRB3r0Dg9ttv79aUImaLnD1ZQtGYMWPqcILlJAsowi3I4AVkW56iLKCIes0DikhCyI3EG2+84dyiWAQBUVuGo21jTfkBXNxbbrmlu8kwy0nKn2r5tSEYmhjC0FX1mCEAjFmqQCeWMdzBvqEIdyT7BH7M9f7o1Eed7rgpqwpFAqKWzbPtmwKithIlf6CqQJQEQ0zTPeaYY9wUaDqaOBRtsIE/SxHq+/T7J8HQzjvv7GKGfMVJcU5Ry5DB0HbbbeeyYdORAwqAQZZQhGWGjNbEEQG7WUERlhksGFgPBgGKaFekE0Bj4AAoIqDdNxQBQj5jhpJgCPf6uHHjXIA3rnAsYlhuOO83//ZmsNlmm3mzFBGzRDoPtvRZ6EwbA0arCkUCInrX9EVAlFK7KgKRwRCBrWYZAoZY9JBOBTChg8EkPRyKNvDmPktZRW2/lgRDWIZ8B1A3gyEsUhbLg5ssDygioDoPKCLQepCgCDdWHlDUcLg5vAAAQABJREFU9qJI+YFmMMQMM0AIdzf1C5QZFLHOHS7avKDILEgpT7mQXxMQ9VYtAqKU+lUNiIAhUttfeOGFztePmywKQyYTUMR03rJDETDErC7uYOtusp2/75YGYbDyVYChiy++2M16iVqGojBk+24GRcTXLL300vaxvm8FRdnEFFUFitrBkDXQRCgKXcN5QdGMGTPqbjU7xrJvBUS91aCAKKV+VQKiZjB0+OGHJ05xLzsUGQzhBqzDUGgZOvOsM72lE6CZRWGIAGLulnGTJcGQNUtB0ZvOdbjsqGWDlVb2lzSyWUwRlqs111zTqqPvWwdF64Xuszca3WfEuBDjVPSSBENcV2YZih9/KyhixqMv93gz91nVoEhAFG9x3T0XEHWnV/3TVQEi4kSSLEPNYMgEiEIRsS6AhQVab7BBcd1nURgiXwnngZuMKeC+Y4bMMtQpDJnWQBHTiHFTRmOKsrIUMQuMdpJVTFEz9xkuRLTwVYAiArzjs8+ygCKyckcDrYkpKjoUAUMETF999dX1AGpgiHxhuMmaFYMi4pkIeCamiEkEWIqygCKu+WhMUZWgSEDUrNV19rqAqDOdhn2qCkDEAHfssce6qeVMicVNNmHCBJfArJPkh3Qs6627nosvikIRHTsDC79XpAIAYY2h0y4LDJl+gqLPLEWeoYip8bTdp59+OnjqqafqU/KzgiIGZ+DAAq2LCkVpYcjacxSKgL8soQiXfxyKZs6cGXAjR2B7mYuAqLfaExCl1K/sQNQMhlg2ohMYMtnmnGtOl1mYDoaMtFhgmMlBx14kKCoaDBG/tPjii5uMHW0Niu65u3H2WV6WIvIXRRMrdnQSXXzILEVYHlnTDusY4O3bUiQoal1JrDmHZeiaa65psAztuedeIWg0twzFf7UVFLEQLX2Kj4L7rKpQJCDqrcUIiFLqV2Yg6hcMmXSYxzH5FxWK8oShX/ziFy5TcNRNlgaGTGugaNnRyxbCfcYac4Iiq5n+bIkp4lqKWopw7wAPRYgpAoZIIgoMMROVvEpYXPfcc89UAGNQRDbpqKWI6yUrKDLrNjdyZbcUCYh6uw4FRCn1KysQAUN0YKwAHXWTHXrooW5tpZRyuJiBIkIRMASA4BrM2k3WbxiyuqlbiiJ5ish8vOqqq2Yy+ywaUyQoslrp3zYORVhdGbTzhqJ+w5ApxnmRziMfKFrP9V1VgSIBkbWqdFsBUTrdSrnafRIMcbfXKwyZhEWzFOUFQ2TjvTicWn/IIYcE/bIMmca2dZaiWPJGlicQFJlC/dniPiNfEDEz0Zgi3J2+Z5/h1jFLUd5Q5AuGrJZaQdHYsWNdnKJ9tp/bESPCOMjQIseMz6jLv6yWIgFRb61DQJRSv7JZiAyGuGDMMgQMMWiTfbpfpQ5FczbGFNHBrP/l7AKtm8HQT37yk2DBBRfs1+kO+x1gCMsQkMmsGZta34ubbNhOPntBUJRdTBFQBBQYFJFc0DcUMeuxCFCUBENYXNO6yZq15ygU2SwwAszJ18W6hsT++Ci4+ptBEW7KMgVaC4h6ayECopT6lQmIojBELhxmf/mAIZPSQdGXh0zRdtdFqv6Zf5vp7rZ9zz6LwxAdKVPrqwRDpnWS+ywvS9EDDzyQS0wRg2cWgdYMmnlBETcUwIFZiriJYVaU79IMhvbYY49UMUPtjtegqFarOTchs+3yhCIC+csERQKidi2s9fsCotb6NH23LEDkYOjoY4Kf/fxnLjGgbxgywYAi7qrZRqGIRR153RcUJcEQa5PlBUOTJ08OmC3ls1hgM3EQlqcoSygChGhnrM2VBxRhias6FBFjkzUUAUOk4bj22mvrAdRYhnzBkF0jRYIiYKxMUCQgslaUbisgSqdbKWKIGKRYmuLnP/95pjBkkgJDTL3HbXTfffe5u1tb6doHFA0iDJnWeUIRcUuCIr8xRbjPsoSivGDI2nMrKNp44+zcZ2ahKgsUCYisBaXbCojS6VZ4IEqCIXKHHHzwwW62SsrT7vprWUHRIMOQVUozKGKxViyavgprnw0aFBHbE3efsTDvWmut5Utml0mdBVKxsvp0n+UNQyZgMyh699133Gr1vmOKyKSNdbtMUCQgstaTbisgSqdboYGoGQxNnDgxUxgyaZtBEXddxGX06j57//33XQZqm1pPR5mVmwzrG8ksLYB6++23D7Jwk5m28a2gKBv3Gfl38oKiddYO3WdhPF4Uikim2o+YoqLAkLXr5lD0rncowooNFJl129xnWL0///nP2yEWaisg6q06BEQp9StqDBFxHEcddZSb6WQB1FiG8oIhk9egiA7m/vvvr7vPeoWi998fyjN03HHHuTxDecIQC7XmCUOm9aBC0WOPPeYyWmcVU2RQNH369ODJJ590y3ww+ywPSxGWjF6hqGgwZO3ZoOjTTz8N7r1nlsXmvffeywSKyI8UhSJSaQBLRYQiAZG1mnRbAVE63QppIQKGJk2aVDgYMomToMjuutJYirAMMZ09DkNnnHFGwEKdvgpT64tmGYqfK1C03HLLNWS0JtC6yu6zMWPGBIKidJai6c9OzyWAOt5umz0HirDIOSj6zI310EMPBUDRRhtt1NVyQ832kfQ6U/KxCJUFigRESbXY+WsCos61avhk0SxESTCEVShvy1CDaOGTVlBEh/eFL3wh/pXE50WCoaJYhuJCCYqydZ8VwVKEJQMraTfuM457/ITxDbPJuMnwPZss3l7bPU+CIjKl0xcIiobUExC1a0Wt3xcQtdan6btFAqJmMISrjE6kaAUoIrcHd13mPsNShKujEyjKE4bocI444oiGmKFzzz03WHLJJYsmszueJCjCipKVpYgB69VXX810Sn5eliJmgT333HON7rNFswm0xvWMxYQ8Rd1AkYOh8cNhaPfdd/eSZ6jXiyRvKOL4o31W0dxnAqLeWpiAKKV+RQEiYOjII490S0VYzBBWoaLCkMnNVPwkKKKDaQVFRYAhBh+OnwDqc845p7AwZFrHoejFF18McJ+tvvrqmcw+G2QouvOuO4NFF100k9lncSjC3bPhhhtaMxi2LRsM2QkYFLG4LPDHLLAsLUUcR1GhSEBkrSTdVkCUTrdCxBDFYYggP6bVk4V63nnnTXlm2X3NoIg9WgfDXW4zKEqCITJQZxEzZJahssGQ1WYcil544YVg6tSpuUGRLTtix9fvLckwi2ApIsblzjuLB0VlhSFrJy2haEP/MUUch/VZWLdZXqQIgdYCImsh6bYConS65Q5Eb7z+hrMMXXLJJS7pIjDEumRlgSGTHSiyeAfrYJKgKBGGdv5+cPoZp3sPoL7ooouc1mWFIdMaKFp++eXrgdZYivKEIo5n9OjRdnh93wJF5AXCGvb88887N2cWGa2ZfRZ3nxUJipJg6Pjjjw+K6iZr1jCaQRE5yehTmHXno1igNb9tfRYWKqCIySF5zj4TEPVW4wKilPrl6TJ74403giOOPCIAhpjxZDBEmv0yWIbikreDIt5nOvsJJ5xQn1qPZUgwFFey/fMVVlihUFCUhaUoDkV33XWXAzH27askQRH7zdt91gyGdtttt0LGDLWrH6AICGHBauDE3GdZQBEuf9Zci+733XffzRWKBETtWkzr9wVErfVp+m5eQPTSSy+5qfWXXnppJWDIBAZ6LN7B7rqwFFlOGdYio5NjBo2DodP9WoboWOlciM8qu2XINLZtMyjCYkPWaV/FMlrHY4pGjRoVcEy+SpKlKCsoIrM01inyFOE+Y78jR44MeN1XYZkPfj8eU8T1w01UdG0yLEO+YejNN98KJ3fM4+t0Axa6BYqIoYzCCecLtPC+j2KTQ2qfFgeKBES91bSAKKV+eQARcR/77bdf8Jvf/KbuJjv00ENd/pAyWobi0idBEWtkTZkyxc2eMRg67bTT3KAS/36/ngND7IOpx8QzcVwEUJ999tnBUkst1a/d5Po7SVDEYMKq8bjVfJUkKLrtttvcArgEefsqeUHRIoss4mKZolD0l7/8xVl1Gax9FaCIGKooFJE08oknnqgv1JoFDJE1n0SxJI7ceOON3bXk45yBHmJ4olBEwPXLL78cfPWrX/VmOXdQtMFXXH6kKIzlZSkSEPXWugREKfXLGog+/PBDdyd3zTXXuA6NQRrrRVndZM1kNyhi+jAgRAeHOZwp+t/97neDs846yysMcVynnHJKcPLJJ7v8Jjzfaqut3NIgVYEhzoliUHTzzTcHdOAMXlhviL8AIHwVg6I77rjDrcsFdDJYE0+0yiqr+NqtO6ck9xmvAYK+ikER8Vq4rHBzo/niiy/uYo187XfBBRd0UEQqgMcff9wN2rh4cDOdeuqp3i1D9Fn7779/gDUbOOG8gROucR8lCkW2PxaTpl2PHTvWKxRxzZA00m7euI44X5I6ondWRUDUm9Kz9/Z1fTsrBRg0okkLsZZw9wcoVK1YXBSWGiucJ9NsASXfhbs+Bg4rLDeSxX5tf1lu0RrgjBY6dt+FfQK7Vl555RW3JhzWE5+FYGcsfQyQFK4j2pXvQvvFhWOFgN9/fNyou73Xz21S2yUomP6Erc/CRAgyxtOeCDhGd+IAo/Xe7/1jGSPlCG51wIu6veKKK9xNDufsqwBjTGrhBpV+mn0DhNE+29e+9bv9U0AWopRaZm0hmm+++ZyfnKn2jz76qOtUuPthQCP2xnfnllKmrr9GJ2oB1HQonBedOh0bCQXpWBnUfHY03MUCRPfcc4/TmfgPAtnHrDUmWGikvyVBuharxy9cddVVrgMnLo1CssYLLrigHsvV4883/TrQM27cOBdXw4e4gwaQZs6c6e6wV15p5WDZ0f4sNuY+I6aHWZnf+MY3mh5rP97AOrP33ns7Kxi/R8A1YLDHnnu4tt2PfST9BpYhdL7++utdezadua5wRQP+FreX9P1eX2N/uO0AQSwn3OCwX/osn+4z+kosNrQn6yPZL/v3HVOEngDgmmuuGbDYNMeSZZGFqDe1BUQp9csaiDjMBRZYwHUkdCjxDqYKUAQMkfX5xBNPdO4q7t532mmnYNttt61n4bXprb6haNNNNw3mn39+Z+qnQwdCHRSFHbzPddJSNseuvwYMHTjhwIAFPSlA4IUXXlhPgdD1D3b4BYMh9KQQ/MsdPW4Ny2hN21555RCKPLqxgKJ//ud/DtZYY40Ojzzdx4ChffbZJ7g5dJEB2bhdSeb57//+795cRxypwdDvf/97dzMBhGG9WGaZZerXEjEvvqGIGbBcq3EowkrkG4qwAgLa0b4yCyjaZJNN3FIi9NdZFwFRb4oLiFLqlwcQcah0MGRythib6F1XmaEoCYYs6eLXvva18K6rFt5dDgVXA0XEvPiGIu4mucslHqFKUGSWoSgMYZXzOfOJtnvjjTcGBxxwgINLnrM/3Cjf+c53XOwQswqzhCJfeWo4N4pZhqIwxGzJf/u3f8schrjJIJ6HayYaaF1lKOLaJdA6fgPpG4pwj/puW0MtbPj/AqLhmnTzioCoG7Uin80LiDgEc58lQRGm4rK5z5JgiDtom02Gy4zFGzFFY/rmvNlmAUUWFFkVKHKWodBNFIchXBs+SzMY4m6aQqA1AdVZQ5Gvc06yDJ155pkOhmjPvkqSZQgY2nXXXV2/YIHWRYEiLDhc2z4DrbmGcRNmaSnyVb/tfldA1E6h1u8LiFrr0/TdPIGIg2oGRZiiywRFwBAuhJNOOqnuJgOGmAVDvhYrLaFobb8xRVWAItw1V199tXObFA2GrI6rAkUGQzfddFPdTQYM7bDDDpnEDEXdZFEYMp2bQRFQApz4KuY+45qPwglQhHUb952PQsCzQZHdUNn+fcYU+TiXdr8pIGqnUOv3BUSt9Wn6bt5AxIGVHYqawdApp5waBp7OgiGrhKZQ9N67zv3iM9B6CIrmDd1n95bOfZYEQ8RvnHfeeS7o1fT1scUyNP6A8cPcZGYZiu+z7FBUdBgyvfOEIlz+eUMRbjOgCMsRbjWgqQpFQNRbLQqIUupXBCDi0JtD0T8KbSlqDkOnuFk4zaoFKNp4o42DTz79pMF9xowhYlJ8QxEJMEkyV5aYorxhKClmqBkMWZ2XFYrygiGSPjKbrJ1lyPS1bRGgyCw2bLOyFFncpUERMUZVgSIBkbXudFsBUTrdcl/cNXrYBkUM0gQcD8XYTHEdTBHdZxwnbjJLfshsMtxkJERkNky74qAotHAwFd86VO72gCxiYQRFQwoWCYaol3PPOTdoB0NW92WDojxhiGDpKAzhfraYIdOz2bYVFOHG8pXnzCaHcM3aNZwVFOEmqyoUCYiatfTOXhcQdabTsE8VxUJkB2ZQRAdjUAQkcNdFBwB0FKEAQ2SbBn6w6nBc//Ef/9ExDNk5xKHI7vYERUMK5Q9Ds9xkDobCdApjNxlKhmh12G5bFigqGgztsssuXU2saAZFNiXfOxS9F0LRg7MmS9BncSPnM6aoqlAkIGrXq7R+X0DUWp+m7xYNiDjQokNRMxjCUtSJZSheGYKiuCJDz/OHoVlT6+sw9Flm6OQjbv5qEhQxVdx3nqLmR9T4TtlhyM4mbyji5ih6I8eMUt9QxO/bjFW7oSq7+0xAZC063VZAlE63QrnMoqcAFOEPj1qKGEBwL+VpKWoKQyeFMLRIezdZ9Byjj/OGovnmna9QMUVVgiGr5zgUkSCzCFBUFBhiNiY3Fd1ahkxf2xYFioAT6tc3FJErKAmKmKlb1pgiAZG15nRbAVE63QoLRJwOgb9RKIp2MMyWytp9Bgwx7Zip9FE3GbEOLHzZawGKyLRsMUV2t5eF++zL63/ZWeYaAq1fD5f5yCGjdRVhyNpG0aCoSDCE+7lXGDKdBxWK6KOwUFlfWVYoEhBZS063FRCl063QQMQpGRSZKdoudO66soSiJBj6wQ9+4PIO9QOGrPqIcwCKPv0kXHE6zGidKRSFFjksc3UomvpowJpzWUJRnjB0ww03BOPHJ8QMpXSTWZ3Gt0WBoqLBENdTP5OxtoSiDfwHWif1WT7dZ2YpqgIUCYjivUZ3zwVE3elV/3QRY4jqB/fZA6AI+EnqYLKAomYwRLK4fsKQnbdBUdxSxHEAJz5nn2GRi0LR1KlTHRSRCsD32mdxGEKHrPIMZQVDVsd5Q1FeMPTCCy+4pTdsNhluMixD/YYh0zkKRQ8//LBLM4Ebi0Bn4MRnoPV6663nFnGOWmy4kcPl30/ws3NlmwRFZKfHUsTxsAxIGYqAqLdaEhCl1K8MQMSptYIiBnFf7rOsYciqMQmK6Mg5Ht95igyK7rnnHrc/oIhFS31CURIMkW04i6SLwBALhtpCrb0GUFsdttvmBUXA0L777htknYEaGNpvv/3qU+t9w5Dpb1D0t7/9za0azzWUFRRxLb3zzjsNC9HS1n1DEakGOE+DMaCIWW9lgSIBkbXedFsBUTrdCu8yi55W1lBEh8IilqxFZjFD3Mn6sgxFz5XHSVBka5FlAUXkWMkCivKGoSzcZPG6tecGRVgvXnnllcB3oLXB0F/+8pdMl+NIgiFi8XxZhkxf2xYNijgurNs+LUVJUITVmQzbRbcUCYis5abbCojS6VYqIOIUs4KiJBgi4POEE04IFl100ZRqd/81oGhsGMPC3R0J34gpyhKK5p9//uDuu+/2ZinKG4YmjM/eMhRvBVlBUTMYYtV6Avp9lWYwRN4uX0CQdC6CoqG+owxQJCBKasGdvyYg6lyrhk+WxWUWPWigCJOzmaIt0JrBtR/uM4Oh008/3VmG6LTJmHv88cdnCkN2zlWFoiQY4q72/J+e72Kl7Px9bLOOGWp3DkAROYl8WYpawRDty1cBhnDP/eEPf3CzJ3GTYRnKGobs/AYViix9id1QFR2KBETWYtNtBUTpdCudhchOMwpFDCIkJsNy0isU8Tu4yYChd999193B5glDdr7NoIjjzSLQut+WomYw9NOf/nTgYMjqeNSoUcOgiDa9yiqrBMsuu6x9rOutwRAL1FKWWmoplz4Cy9AgwZAJ1wqKuNHyZS3DBc0N29tvv+3Al2uXWCaKb/cZ8XhA0UMPPVS3MhcZigRE1lrTbQVE6XQrLRBxuv2GIjooQOiMM84oFAxZ1c6CItY+G5qSX0b3mWDIanT4tt9QlBcMvfjCi84yxGwyZlZhGSIWLy/LUFxpg6KZM2c2BFpjDc4LioAlXy5EZp8xY5NYyCgUUTdFjCkSEMVbbHfPBUTd6VX/dBldZvWDDx8kQRF5dCjduM+SYOiHP/xhbm4ydwIJ/82ComLEFL366quuQ2WA6aTUPq0FV19ztZvV9eyzzzoLBW6yQbYMxXXrFxTlBkMvvhjss+8+bjZZFIZY+NjXgB/XsJPntFkmJxQFiri2fUIRM3HjUMSkiSJCkYCokxbc/DMCoubatHyn7EDEycWhCD95N1DUDIaOO+64XGKGWlZY+CYdJ6utY/Jm4VuLCyD2KYvZZ+RBigZadwpFdLzXXHPNMBg6/3z/MUN//vOfc5la364um73fKxTlCkP7zIIhcldhdS2KZSiudzMoAh5wY/l0n/H7b731Vt19hrVXUDRUQwKieEvt7rmAqDu96p+uAhBxMkARidasgzEoooNZd931woRlI+rnHH0ADGHKJ27IYoawDBUVhqLHblBEHMKHH36Y2ewzcpl0C0XNYCgLy1DZYMjqOC0UAUPk+8k6ZuhFLENNYMjXiu+mVS/bvKCIBKhxKOJGDggbdEuRgKiXFh0EAqKU+lUFiDh9cmvgfkmGonVdFteoTGWGITsPg6KsLUXdQBEwdPXVVwcHHnhgEHWTZTGbLA5Da621VjB58mSXysA0LPK2Wyh6fNoQDN1w4w3utLIKoE6CIWLxsAwVGYas7oGiddZZJ5gxY4ZL0Im1lRsN35Yig6I333zTWYrsRi4LKGKJIG4CLaaoSO4zAZG1zHRbAVE63UodVJ10yp1CURIM7bbbbsGxxx4bLLbYYkk/XdjXDIqKaClqBkN5WIbKBkPW4DqFomnTprllMYoCQ8QMlQGGTOcvfvGLDopIjkl29iyhiEBuoOiRRx5xM2azshQBRaQvYaYuMAYUMekBOMwzeaOAyFpluq2AKJ1ulQMiZGgHRVzwcTcZMHTMMceUDoas2vOEogUWWCC48847XUfOQGIxRbyeZBkSDFmtdb5NgiIGTXIXjR49OqjDULgMCcUsQ9/5zne8Tq1/6aWXhrnJsAyVDYasJpKgiNgeLEW4sXzFFGEpSoKiOeaYwy234SsYnfMqIhQJiKxFptsKiNLpVkkgQopmUMR7uFFwm1jMUBYwxOKKgJivDpXzagZFWEaAE18F91kcimwZCiAz6iarMgzRnpje7KvEoQj3DlBEWydwmWSTlCgM+ToWfhcY2nvvveuzyQigzgKGfOvcDIqoW99QRBykrbmGFZv6BYqYGg+8+ChDUDS2wVLEpAkKOc6Iz8y6CIh6U1xAlFK/KsUQxSVgoCAhWTSm6LbbbnNLYJCkjLuu3Xff3btl6KOPPgouvPBCN3CsueaaXjsYoAg3VdR99vrrrwfs1+dq9XEoeuyxx4Jbb701YN8Etmc1tf5Pf/qTi1WyhVqBQRaIZfkTn+V///d/g4MPPthZGLHY+CpJUMS6ZARSU/KEISYm+LYMvfzyy8Gee+4ZTJ8+3Vk2fOlcJCi644473M0b19A888zj5ZRHjJjLXSPmPmOSxv/93/+5JJJc2ySVzLIIiHpTW0CUUr8qAxGSGBSxWjvuHNYEw1rDIJ0FDHEMTCs/+uij3awfrERMjfd518XgDxRxdwmMEZeANYH9EjzqqxgUAZ10qOybQjzCf/7nf3rPQH3zzTcHBxxwQH3VeoMhXAI+CzA0YcIEN4Dcddddweqrr95TZul2x2pQxNp2tGvTeeGFFw7OPffcADeZz0LeHqDEki4C2sDQ97//fa8xQ5zrHnvs4fZ7++23uxsa8ur4KgZFQL3FFOE+Aw6w2Piy9uI+w1IE/HFjQX/Ffonx4Xx9WYq4QaTvoK+gz2C/TNbg5pHj8dlnxetQQBRXpLvn/lYm7O449OkCKgAULb744i5vjx0enQp3W74vcgYrgiXZkjfIlgWh0/FZDj/8cBfbYZ3n5Zdf7taQopP1Wfbaa6/giCOOcGZ+2w8Dpk+Xne0H2MXdQMkKhgCgo446yg1c7PfJJ590cERwqs+y6aabugkArIFmhXZORmjfBY3JeAx0A9hZwBAQdtBBBwXXXXed2y/uJNyEF110kdfTBT5PPPHE4Lvf/a4DIM4bQPAFQ3YyLJXDItJoTGFLn+Erlsj2SxD80ksv7W4ceY0bOKxxvixTtl9t+6uALEQp9ay6hQhLxSmnnBKcffbZ7g6LC56LnMGTmRXmn/cV+8Hv47az6a0cD4NoFpaiLbfc0nXeuM84X7bMnMFiQ4frq3AXS8eNpQgIfOaZZ9zdLhYknxYqXFXLLLOMA1CC5n1bhqjH8ePHuySVaMk5M3ARVE7bAspwYfkqBFQzaD744IPunHF3RAOtfe0X6GJ9Nc6T8/dtGQKGsPxdccUVrj2ZzrRlLCfANm3aV8FShEWI2Wc77LCDW5LEJyBgCSIPGpZl+gv6rO9973vBSSee5NXtzU0b/ST9JdrSd3396193ry2xxBK+5E38XVmIEmXp+EUBUcdSNX6wykBEZ3LSSScFZ511lgMSOpaddtrJzdrAFE3HQ/Agr9Oh+oSizTbbbBgUURO+gxaBItyD0Zgi7nB9QxGmdwZO9OVuHr0JwiURHQOMr7LaaqsFW221lRuwfe2D3zUYYktZYYUV3ECJBY4BnHPNAorWWGMNt29iiAhkx4qQBRQBeuhMkDHXj68ShSGgHncVgdyLLLJI8MQTTzhLVVZQxPnSfn3eTBgMMekDaxTwt++++zorJH21r2IwdPLJJ7uYS2Bo5513dlZl2nbWRUDUm+ICopT6VRWIkmCIuAfM31tvvXV9JkeeUMRUdWDFNxQRaI1FioEDXYCjLKCIwRKLEMGZWUIRMRg+SxIMnXPOOS4mbbnllnM6ZwlFDFgrrbSSi/vIEopw0fl0HSXB0AknnOCC1wF6kkE2QNEXQkvRuv4sRcCJuaB9tC/6IvKgMQkAGAI0gSHc37j8fZVmMERficswjyIg6k11AVFK/aoIRM1giFgPki5i7satY9Nb84IiOiKDoiwCrfOAIlwNeUBRysuh7deawRDWAwpwkgcUMXDlAUVtBUv5gWYwRIwa1y+uQmZOxqGIJWVoc2UrSTDE8ivAENYwX6UVDPm0SLU7HwFRO4Vavy8gaq1P03erBkRJMLTXnns5k3M0A3USFDHYZe0+MyiigqoORUwfztJS1LTRp3yjHQzZzxoUYYnL0lJUFSjiRmXcuHHBlVde6WLfsPhhrTAYMp2rAkX0WXHLEDB02GGHeYahj104ATFDpCbBTUY8GFrnCUPUr4DIWnm6rYAonW6VSswIXMRjhuhEJx01KTEDNVBE4C2DFtNM6ZiygqLNN9/cJUJjHaEiQBF31T5jI/h9Zptl7T5LeVkM+1qnMGRfBIpGLzvauSeLAEVYj3zmR7Lz7nULDO2///4NMMQ1HYch20/ZoYg+55gweWnUTZYFDDGl/qyzznQB1FEYwiWZNwxRtwIia+HptgKidLpVBoiACi5mZkkwowtLj4OhSckwZHIBRQQAx6GIeAGfgdbEXiRBETFFeViKiFnIAopwn5XNUtQtDFnbWmHFFVw+IlmKTJHW22YwtGdo4eU6bVbKCkXAEPnJyN5uMUPAoG/LEDB05pnFhSHqWUDUrLV39rqAqDOdhn2qCi6zOAxh+v3xj34cTGoDQyZGEhQR25MHFGFBmS38lwUUcf7RQOusoIjZZ1EoIg6EdZx8zj6zuu52Szsg6SJQRFl++eVd8kOLGWr3eyuuuKKgqJ1I4fvNYGjIMtR+OZSyQdFHH36UCEOHHnqoVzdZGWCI5iIg6uCiafERAVELcVq9VXYgSoShH/84OPLII4PFFu981fooFLHsA0GOuUHRnSEUZWApsjw9TNPmbhVLRhZQhOUtCkUsTPrCCy8UDoqSYIjp0J3CkF13SVCEq9R3niIXU7Ri4+wzALho7rNWMNRNKoxWUESb45oqQqHPOuroo4ZZhrKAIZJonnrqqfWYIZZaKYqbLFo3AqKoGt0/FhB1r5n7RpmB6OOPPm5wkznLUAoYMumAIqaoW+p6IAGLDVNts3afYUHBrebbUgQUMVBEoQiXI0kUfcYUFR2KkmCIZTG6hSFrW3EoIl9RJlC07KiAfQP5WU7Jt/Nut+0XDNl+gCJAMzr7jLZtyRvzhiIHQ+FsV3OT0WeRdDIvGDr++OMLETNk9WdbAZEpkW4rIEqnW2ljiDD9Hnf8cQH5XxjAG2AonFqftnBHalDEIGJQxOvASTd3rN0cA/CzxRZbNARaC4q6UbB/n02CoTSWofgR5QVFyy67rEsHEIciLEWkCMirsKRNPICaxIC4yXq5zpimDhRhdWQpFayeRYCiZjB0yCGHeHWTkdAyyTJUVBiiPQqIersqBUQp9SujhcjBUJjaPgpDZK9lDa1+JDAbVCgCyliDy9xngCbJFX2udN3MUrTBVzYIFvjiAilbdfqvNYOhb3zjG+l/NPJNQdGQGMAQs6miU+uBIZKn9gJDJnXRoIg+izxocctQFjB0xhln1N1kXOM/+MEP3NIgrFlW1CIg6q1mBEQp9SsbEPmGIZORTnnTTTYN3pjxhnM3DIqlKC8oYqV2VjAnTxExRc8//3yw4YYbZrIorNV5Egz14iaz341vBx2KfMOQ6V0UKKLPYoJHFIZYAy4vGCLnUZFhiPoTEFkrTrcVEKXTrVQus2Yw5Cu1vYOicFVxFnW0PEXEFPF6Vd1nZPCOQxGLhmZhKcoTiqjXAw88MPVssm4vv0GFoqSYoX5ahuL1kDcU0WcxwYOFWnHd4doHhg4++GDvbrIky1AZYIg6FBDFW3J3zwVE3elV/3RZLET4wVkBOuom22efffrmJqsLEntgUBQPtM4KinBbsZo58QezYorWCead93OxI+3PU4JOgSI6bnOfTZkyxcU2+YYiIDMPKMoahqymmkERS1JwXfoqecUUNYsZ6pebrJleUSh66qmnHJhEF4T1FWidJwydfvrpwemnne5mk5mbrCwwRD0KiJq15s5eFxB1ptOwT5UBiIAhLmaDIS5wW/QwuhzHsJPr0wtFgKIHHnggoIMdgqLZ3Kw3Ftf0URggNtpoowYoYv9ktCVfkK+YIvYLFDGARd1nzz33nDf3WV4wZPWWBEUAMEHBVYIiLEPx5Th8WoZMX9saFNGWgCJuNAyKaHP9hqLcYSgEojffetNZe3fZZRfXfxbdTWZ1xVZAFFWj+8cCou41c98oOhDlDUMma9GgiA6cgGTfUETGb5ISEkOVFRSNGTOmAYpY0Xz69OkO0pg+3a+SNwzZeRQNijiefs4+Mxi64oor6muTZQlDpjNQRNvyDUX0WXE3Gck9s3CTOcsQMBQGrXPjCAyxNEiZYIj6EhBZq023FRCl063QMURFgSGTdlChiIzdVYOiosCQta1mUMQAvtRSS9nH+r5Ncp9hOekXFDEwYxnKG4ZMON9QRJ/FbFeLGQJKiE2bOHGi15ihTz75JKgKDFFXAiJrsem2AqJ0uhUWiJJgiGm6BFBn4SZrJidQtNmmm7nZZ3kEWhOYGXWfcZy+LUXM9iI5ZRSKGOh8u8+AARLt3XbbbW72GZaiZ5991sU49WIpwu140EEHZRZA3awtxV9fcYVwmY/Ry9YXhCV5Y17us35AUVEsQ3GdgSLcZP22FBkMMZvs/fffdxYaYMi3ZQgYOu200xwQld0yZHUlIDIl0m0FROl0KyQQNYMhFj3ME4ZM4hFzjwg22yyEotjsMzJd09ECTT4Kd5ssCBuFIiwdFN9QtMEGGzRAEQN1GaGoqDDkKjFcWWKFEIpGVwCKDIYuv/zygAF7vvnmC3CT7RUu1Orr+nAadvhfv6HIYAjLUByGmCjgqyTB0K677lpKN1lUIwFRVI3uHwuIutfMfaNoMURc4PEAaixDRYEhkxmLSRyKGGwHDYoY+LAgMeD5KMRKjVkrtBQtNtxSxLIjX/jCFzrebaFh6LOzCE/XZZUePXp0aS1FTWEozEDNzURRSr+gyGAoahnCAollKA8YOvroo0sXMxRvEwKiuCLdPRcQdadX/dNFAiJgiIuZZHjMAsEiUkQYMvGSoIjZUXlBUa1Wc2uQ+Qy0xlLEHT5JDAm0xlI0c+ZM71DErCuykEfdZ08//XTQKRQlwdA555wbbL31VladhdkCgSussEJoKSofFLWEofAmomjFoIig/b/+9a9dzz6jzyJmKA5DxAwJhtLXtoAovXZ8U0CUUr+iABEdC7MhojDEOkdFswzFZY5DEfmCsoSi9997P5jywBQ3JR9I+fTTTysLReTniUIR61R1AkXUBwMUMVCU5Zdf3rWzIsKQta9mUET8WB5T8juJKSobDJnWaaGIPouYxrxgiLghUmFw4/jDH/7Q3UyWbTaZ1UF8KyCKK9LdcwFRd3rVP10EIEqyDAFDrABdhJihulhNHgBFxPZYTFHmUBQGcJI8kf1mCUVYwohhYr9YikheudGGG3l1n3ULRUkwRD6rrbfeukltFuflJChixfo8oQjLFUAZL2WFITuPbqEoLxjihufUU08NyEINDNFGdtttN7dOWlVgiDoREFnLTLcVEKXTLfeg6rLDkMleNChC1/XWW89rnqL111/f/b5B0cMPP+xm35HU0WdMEVC0xBJLBLfeequbfdbMUlRmGLJ2VQYoAoYOOOCAYFgANTFDBXSTmbbxbSsoYsYjlhhKMgxNdFZIn24yYOiUU05xMMSEhqrCEBoLiFAhfREQpdQuTwsRF3g0ZogLnJwlZbEMxSVvBUXrrL2Ot4BSm332wQcf1C1FuId8QxH7BYrmnXdel0GbmCIHReHsu6yg6JZbbqlDETEgY8eOdYHWVYAha19Fg6L777/fWYmwFBkMXXbZZY2zyUoGQ6Z1Myj64he/6JI6EqcXdZNRNwRPT5x4kNeYIYMhcg1V2TJk9SAgMiXSbQVE6XTLzULEBX7UUUfVY4boWLjL9A1D7JfC/nyUllAUZpb2dccMnGwaLkTLavHmPssTil5//fXcoIh12Fj3LhozVBY3WbM22QqK8lj7DCjCGjJ58uQgaxjiGvZ1/aI/UEQai2eeeaYh0BooIsHkBRdc4KbWcwzAEDPKfFqGuLHBTRaFod13371ybrJo2xcQRdXo/rGAqHvN3DfysBA1g6FDDjnEa8wQ+yVw+6abbnJJBX3BSRGgiAGL9ZSAgrffftu5z3ytQdbMUkQSRZI3MpD4KAxI5j6LWopuuOEGN5CxT6wYZYch064ZFDGDbqWVVurrchu2T9smZbRGZ9oZA7blGfrRXj/yBv0cC1bQE088MQC4V199dTu8vm8BnHXXXbcBim688cbg3nvvdcdgMOR7Nhl9FhNLaMNcx+wXGJo0aVLpp9a3qjQBUSt12r8nIGqvUeIn8gAiLmabTcYFjmXINwxh6mZ9IYIRiXmhE7dkg4nC9PhiKyiio/UFY1FLkUER23feecedr6/YnigU4a4i0Pqxxx5zA8rGG28c9JJZulVV0H6AoiWXXDK4+eabg7///e/uj++wHhftrAwB1K3OMfoe52tT8hmccVkRzM65r7HGGm6qfvTz/XxsUIRb9NVXX3U6c12R5oHYlh/96EfBXCPm6ucuG34L6ycAQp3ec8897uYpSyjiBoOcQxQs2RzLyJEjG46x30+wQHG+gCBljz32qDwMcZ4CIlRIX4ai3dJ/X9/MSAHu7JgqTTZXg6FDD/E7m4xOGxDiLos4F/54fOGFF9YHTx+nD3z85Cc/CcgcS+4eOlSmLwNjPgsuo1VXXbUOXZw/FhTuMH0W9otFJgpd11xzjRs8GLR9FWBs5513Dk466aSGLMjc5QNLVStcN9TvggsuWD81ZjhikfNdmPK/0EILNeyG5JijRo0KWPPOZ3nttdfcSvXANudKLA8uLJ9l5ZVXdu7XVVZZpb4bzhcNfFk+bUecL/BJv0EBPJl1y3I2KlKglQKyELVSp8V7WVuIGCxZ3oIObdttt3WWIbIQ+yoGQ9zBYiVhMKHQyTBFHTcSx8Oq7j4Kg8QWW2zhTPwMGieccIKL2/KxL36T873yyiudNYy7eAoLdbKkALPOfJbrrrvO1SdJ7iimNZYiOneSKBKA7aMARdTj/PPP76wlQCdT1KOB1j72m8dvcu1gncBlRSH9ATC4zz77eD0cC6C+9tprXTuz+uXmhrQLWOSSpuT366AAEACFWYWsQ0ZwMfFyQIJPSxHWR9oW/QVgzw3Vo48+6oAoOvusX+dpv0PfRBZ49sU1RZ/F+om0cfbrq8+y/ee5lYWoN/UFRCn1yxqIOEzurrbaais3QPoMRozCEJ055dvf/nbA3R4DJSb4rKDo61//ujtfBg2fBRjiztmsBcy6wuS+Wbj2ms8CDDFIT5061e2GDnvHHXd0nTl39HTkANomm2ziFYq+/OUvuwEStyhuhqeeesr92ewznxpk8dsGQ7/73e/c7nDZYIX0DUNkIx8/fnxDAPVe4UwyA09AATjxDUVLLbWUg5+soYgcPwD9888/7yzcZNLH2guk+YQi+kqu3VdefiVgcWPaNHGBVYciAVFvvYmAKKV+eQARh8pdra8lJvj9JBjaZZdd3J30dtttF7z00kvB448/7qCIwdO3pQh3UjfrbnEO3RbcB1EYAj7OPPMsFzvU7W918/k//vG6cLZNIwzhkiRhHOfMchsGRVhtfEMRd/Pc1ZOniAEE+AWMyg5FSTDE7COCbH2WJBhioVaWrMBigwWDes0KiqhbLEJZQxFZ0on/w+XPDLSsoAjo2nCjDR2MDQoUCYh6u6IFRCn1ywuIUh5uZ1+rBS5mCDeZWYaAIXIe4bYCfrjbe/HFF4Np06a5OKIsoKizg0/3qSQYwnLg2032xz/+0U09jlqGzj77bJcCADcWA0geUMSAWSUoSoIh2ncWMDRhwoTg17/+tVsWBpdnPYA6dAdboPWgQJHNPotDEfFcxFfR5n0UriFye2GhGgQoEhD11ooERCn1qyIQnX7G6a7TToIhk4lYJqAIS1HZoejyy68I79ZnucmwwOQNQ6azQRGzzLDYmKXo5Zdf9m4pqgoUYY1gtlHUTZYFDGHxOfDAA4Nf/epXDoa4ZqIwZHWcNxQBCFnGFAFF3GhgeYxaigRF1iJ63wqIetNQQJRSv6oBEcnL6LQNhpjhZZahuERVgCKWS8B1YTFDRYIh0zsJirAoAUUkk/TlOmW/ZYeiIsEQbrIf//jHibPJ8oQi0g3EoYiZWLzuqwiKfCk79LsCot70FRCl1K9KQJQEQ2TDxk3WrJQZiooCQ8TsmJusmc5RKCIFAJYioAgLnaAoWbUiwlCrmU3NoGj06NEud1LyWfb+Kq7RokARuaGysBSR26vK7jMBUW/XhYAopX5VAaI0MGSSlRGKigRDZ511loMa07PZFihiSQSCRHGfMX1ZUJSsFjBEstI83GQsRRF1kzGlf++99+5omncSFD3wwAMuYSQJJX2VIkLRmmv6iylillkSFBFrVIUp+QKi3q4UAVFK/aoARL3AkMkGFI396tjgxZeKH2hdRhgynZltlwRFBLhvFk4vlvsscLOYojCEeyaLmCGSO5I64Ze//GU9ZqgbGLI6jkMRvzuIULTQQgu6xKDcCPgoBkUvvPBCPdCaNCJVgCIBUW8tRkCUUr+yA1ESDDWLGWonkYOiMG9PfPZZkXJ+MJusCDFDuMk6tQzFdTcowrUQtRRlAUWrrbZa4uwzAux9LS8SP/9Wz5m9xLIQZhkChojd8T2brF8wZOdWSChaPYwpGsrLaofZt21STBHuM/IIkS3dJxQx+6xqUCQg6q1pCohS6ldmIGoGQ1/60pdSqhG4ZSfIV1NEKCrK1PpeYMgqBijid/KAomaB1nlDkcHQb3/7WycTgywWGtav8lmAIWaxmWWItBQsoEqyx1YxQ+2OqWhQtNjiiwUAsWXYbnf83b5PfZEYNDr7bAiKRmYCRdGYorJbigRE3ba+xs8LiBr16PhZWYHIBwyZaEW0FMVhiEDkPKbW9wOGTOciQBFJI6PJG/OCorxgiLUFcc9deumlzk0GDLG8zL777tsTDFkdFw2KSK7oE4rIHD4ciu5xi8D6thTRdqsCRQIiu4LSbQVE6XRz62phjvd115TysFp+zScM2Y6ToOiOO+7IxT+fBEMsVus96eIfwqSLhxxcX46jnzBkOucNRUsssYTLpJ0nFGFROOyww4KsLUNJMHT88ccH++23X0C99KvkCUVACBnpo3mK8oCie+7JBorigdZltRQJiHq7+gREKfUrm4UIEEjKM9SLm6yZdEDRJmM3aXCfZQ1FwBCDpS2YimUoCxj6wx/+4CwHloGaQOi0MUPN9LXXiwZFLAmRlaUoTxgiVumSSy5xy9xgGfIBQ1bHzaDIXrfP9XvL7LNBhyKy8DOzk0zavbhA+103rX5PQNRKnfbvCYjaa5T4iTIBESBAgGk86aIPGDKx5p1vXpdRORpTBBQRgOt7emteMMRyHLhRojCEe45ZYL5KMygiWJT9+p59htXg9ttvr7vPABXutn0GWucFQ6+99pqD7IsvvjgTGLI2Y/Bjy3wQu/Tggw/Wl/+wz/V7O+hQxCLWZYMiAVFvV4GAKKV+ZQGiPGDIJGX9JjJAR6GIwdMnFOUFQ0mWId8wZDoDRWPGNAZaP/bYY24GTdWgKA5DiyyySCYB1HEYYgblcccdF+y///59dZNZnca3gqJ3gzzcZ2WDIgFR/Mrp7rmAqDu96p8uAxDlCUMmVJZQFIchYCALN1keliHT17ZDUDSmYfZZnlD01FNP9d19lgRDBDLvueeeJoOXLTB0+OGHB2YZAoaOPfbYzGDITmoQoWj99dcPaEu29hlQxKw0Mmz7nJIfDbQuExQJiOxqSbcVEKXTrfBB1YAAU4/ffPNNd4a2NplPN1kzKbOAoiQYIog86wBqYoaysgzF9S4CFOEWff/9990UagYy3GfEYfRa+C2gxAKosQxlAUOvvvqqy1/1i1/8wrnJDIbG7T8uE8tQXDegaMUVVwwGyX2WBxQRG1ZGKBIQxa+Y7p4LiLrTq/7pIluIigRDJhhQRGAzsS3Tpk0L/v73v7vYk364z/KCoTzdZKZrfFtFKCoSDB1zzDHBAQccEMw+h58syvH6THrOGoN5QxHT1LnZmjJlSpDF7LMiQZGtuVbEQGsBUdIV0/lrAqLOtWr4ZFGBKAmG6MTzsAw1CBY+aQVFa4cxMGk6mLxgqAhusri+9rwZFDGIbb755pkEWvfLUlRIGJo9PxiyOs4birip4eZmEKGItl1UKBIQ2RWSbisgSqdbIV1mzWBomWWWSXmW/f9aEhSR5G9oeuuYrqAoCYZOO+00l+Ct/0c+6xeLaBmadXRDj6oARXnC0JFHHhlE3WR1y1ABYMjqOk8oYiq6xagJiua0Ksl9KyDqrQoERCn1K5qFaDgM/TCgEy8SDJnUcShi9XaDok6n5CfBEDFDZLv1Wf4YJl2MTq1fd911c4sZaneeBkWsC3XLLbcE6MwglpWlaLHFFgvSWorygqFXXnklmDRpUsDAQmHBT9b4Gz9+vLcg3nb12Or9plA0atlghRVXaPXVnt4jMeegQxEzZocsRdzI9S8hZy8VIyDqRb0gEBCl1K9IQEQQbzyAuqgwZHL3AkVxGMINlIVlCDfZxIMnOqjgPIAhQJTZbEUtBkULLrhQuCDsEBTh7sgCipgJlAhFG7UOtC4SDB111FHBhAkTCglD1uaaQZG9bp/r9zZPKPrKV74ybPYZgfY+Z58RaM16jWTvfuKJJwJmn82ComIkbxQQ9dbKBUQp9SsKEAFDLCgZnU1WdBgyyYEiYII8RVguOrEUXXnllQ0ZqIGhU0891b9lCBiaWC4YMp0NiqKWolyh6K9PBaw0njT7jGzXRxxxRH022aKLLuoyQe+11152Ol62WIaAn6hlyGCoDMvzGPxEZ5899NBDLnaQAGxfpTkULRGsuuqq3pY2oi3Hoeiuu+4K8oSiMWuNCebI2VIkIOqtpQuIUupXBCAqMwyZ7GRS7hSKgCHcVdyhUQRDpmL7bRGgiKy/NiWfnEJxKEqCIZIfZgVDF110kRMSNxluswMPPNDbgN6+xrr/RBIUkdHaXu/+Fzv7RjIU3R/wepZQ9N577wV5QhGQhhuRay2vIiDqTXkBUUr98gaiJBg69phjCxkz1E7iTqBIMNROxfbv5w1FWHuaQVFeMPTyyy+7GKGyw5DVvsFP1FKUFxTdf7+gyOolq62AqDelBUQp9csTiBJhKMycu/QyS6c8m/y/1gqK8NfjRpFlqPd6agVFWOpwY/ooZBUmvgOXBiuJRy1FZB4mIN6SLgJOWViGqgZDVm9JUJSV+4xJEdHZZ1WHIpYmiscU5WkpEhDZVZBuKyBKp1tu0+5ZMoBV699++2135GSg5rWlly4vDFkVDEHR5mFM0Qv1mKKbbropuPnmmwNiPChZuclYzRz3HAG+lKwCqG+99dbgN7/5jVtpfMSIEW7f/f4PKMK0P3LkyPrsM2KKsNLQwZON2UdpBkU33HCDW6eKfWYFQ7jsyHxNPVNIEMpUe+LEfMYMvfPOO8F5550XfPrpp16tuUlQRAAw15jP7O24yeJQhFWQtswMUF/aWkwR9fr0008HuM84X3Kbcb60eR9lvvnmc9dMUaBIQNRbLQuIUuqXh4WI6b+sWv/BBx+4o64SDFk10GEDPSR9407z448/rp9vVjB06aWXOhgi2JuSJQwxIP/61792QfLAiS8oYqAwKALCyBz++OOPuyziW2yxRaZQxOBFyRKGsDgyW5ECDPEc7X0WYIhAba7hhx9+OFh55ZW9JkyNQxE3UVjniJHymZ4iDkXvvvtucO+99zoY8w1FG2ywgbuJAYroJ4kpmmeeeQYGigREvV3B+adc7e34B+bbTJO++uqrg48++sidM1NA11xzzWDJJZesnAbk9gB+ojCwyiqrBMye89mRIyRT6xm0WNCTQobv448/3gV+uxc8/QeUMCCzeCUQyPNnn33W096GfnbuuecOWHuNAYxSq9Xcfu+7776hD3j6HxhjhhA3FVa4gyeI2XcA9UsvveRmZf7Xf/2X2/Vcc83lcgz5hiFghHaFdegf//hH8MgjjziLnJ2/ry2AsPrqq9d//m9/+5uzMJNc1GdZe+21nRt0hRWGciHNnDnT7RfrJ9YxX2W55ZZzecGwCmGNAsZISXLZZZc53X3tF5g/99xzg29/+9vOKgX8/vnPf3ZT833tU7/rQYFwgK35+AunUNfCu073F5J6LYwZqIV3grWwodTCzqH21ltv1cKLszZjxoza66+/XgtdIrXQKlALB4Fa6KaoTZ06tfbAAw/UwjuaWug2qYWNqxYOVrX//u//roV3drVf/epXtTCTbG3fffethbJk/hd26LXwwg7HkOzKnf93Z2211VarhRe6O9/QTVYLrQm1sIPN7iAy2BP1G4JIvU7DO+naVVdd5X3P4SBRC2fF1Pcb3mHXwg7c+35vveXWWgh69f2utNJKtWuuucb7fkPwqW255Zb1/Ybm/9rkyZO97ze0RNV22GGH+n5DGKqFMUPe9xta/Gq77757fb8j5hpRC91k3vdLXxeuf1bjPOmrQotFLbT2ur7R587DPDm1EMJqIfjWz9n6SvqR3//+9z537347dHfXQiiq759riuv7k08+8brv0AJXC9c/q/eVYT4sN16ENxte9xveSNV23HHH2jbbbFML13nzuq/4jzMeMS5ZHWe5DV3PtTD1ixvnaXeM/z64wvdvYnHwckfvsSQAABi6SURBVOAConhz7c9zBrHQelK/0KsGRXEY4lyvv/76/ojX4lfiMBS6yTIZMMIM0q7jts4L+MsDhmhHP//5z1so1J+34jAU3lnXzj777P78eItficNQ6CarhZaDFt/oz1vNYIj+0WeJw1BolXMQGloE6wMm8J8FFHFTG64cX++zgKJw1qh3KApd7rWtt966FsauuXPOCoq44X/mmWd8Vm/ibwuIemcZAVFK61IeFiK7CkJz+zAouuzXl5XeUhSHoTCWpRa6kOy0vW2BodAlVx8ogCGskr5L6BZrsAxlBUPhzJ8Gy5BBte/zTYKhCy64wPdua8DQHnvsUa9fYChM5ul9v0WCoXDpEWedx2IThaKsLEVY+/OAojDIOhco8t64EnYgIBIQDZTLLHoNhHlGhkPRZeWFoqLAUBh7kAkMYRmKusmygqG4m2wQYCjqJssKhnAfJLnJvFuGPmh0k4UxUjWDIes/4lCUlaUoLygKA6wboAir5MW/uLjm231meme1FRAJiAYWiLjIqgJFRYGhrCxDt8RihrKCoUGzDBGTmIdlCBgCQixmKJw56WJ5fMMQsZrRmKEkGLLBOQ5FVbcUJULRxdWCIgGRgGiggagKUDRoMJSbm+y+RjfZMsss4wLybYD0tc3LTRaHoXDdtEzcZM1h6CNfErvfBYYI1LYA6lYwZAcSh6KBtBRVCIoERAKigQciOreyWooGDYbycpPFLUN5wRBBrVnEDBUNhpi44rMkwRDuunDKedvdCopC91lFoEhAJCASEH3W5cWhKMzxUrv8sssLG2jNLJPo1HoFULcdu1J9ABj6p3/6p3pAsWAolYxtv0QKkQkTJtRnNJmbrMgwZCcFqEcDrbOyFIVrrA0LtA7zQ3mffVZV95mASEAkILJeLdySuyk6Jd9B0eXFgyJgiIHZpppnBUN//MMfG2aTZRVAnZubTDBUO/UU/7PJkmBo0qRJLp1J5PLs+8NeLEPxgxk0KGJafHRKvgu0LrmlSEAkIBIQxXq2okNRbjAUJvUkeNkgLKsAasFQfm6ycM2/2NXR/6dVgCFTRVC0aI0Eg2WdfSYgEhAJiKw3i2yLCkVJMBSucRQ5cj8PyXAehaG8LEPkOsoi6aLcZF+s5QtDfrMhk/WfAOpwaRsH+ARQdxoz1O4KyxOKxo4d25C8MQv3WZKlqKxQJCASEAmImvRwRYMiwdDgwdD555/fpHX27+Vwjb+GqfXMJssChsK1uWrh2mv1mKF5553XLQPi27oADIVr+jXA0Lhx4zoKoO5UdaAoXIusbk3NK6aIGEOWzvG9zEccihZZZJFSWooERAIiAVGLXq4oUBSHIYJ8ZRlqUXEp30qyDLHmn+8ybdrjtXBRy/oA6maTne8/A7VgaK4aMMQakf0uRbEUOSj6L0FRJ/UrIBIQCYjaXCms5xMPtGa6e1YLwgqGsrMMEZxuMVIErWcDQ9OGwZAsQ20uyhRvN7MM+YAhOzzi3+KWIpa58V0eeuihhtlnWVmKWFg8Gmg9ZCm6tDQxRQIiAZGAqIPeKS8oGkQYIj7JoCTLmKFBg6HochxZuskOOuigBjfZEUcc4X3AjMMQsUO+LEPx7qQpFH0a/2R/nwNF0ZiiPKHo0kvLAUUCIgGRgKjDfigORUsttVQNS9En//ikw1/o7mOCoXwsQwwcsgx111Y7+fTMGTNrwNBss83mgJeYIWDIt6U1TxgyXZpBEQOwz1IkSxFQ5Luue9VSQCQgEhB1cRU1haJP+gtFgiHBUBfNsuOPxmOGFlxwwdrJJ5/c8ffTfnDGjBmFgaH999/fS8xQO23yhKIiWYqKDEUCIgGRgKhdTxZ73zcU5QlDK620Ut1dxUryN910U+zs+/+UgaIIbrJBsAxF3WRZwtDEiRMbLEOHH364d2tBkmUoLxiyqyYvKHr44YeHuc9++9vfep99Nv3Z6cNiiopsKRIQCYgERNZbdbGd9ti0hkDruvusR0sReUOiGaiznE0WhaEs8wwJhvxPrX/uuedqRYCh+eabr5YFDL333vu1Y489tj61npghYAhIyrvcdtttiYHWvt1nRYGihRdeuFZUKBIQCYgERCl7yGnThkMR1p20OT+SYOi+++5LeXSdf42ki1EYkmWoc+26+STtJT61PovZZEWDobTXR6daM2sMGCLZIsH5RYIhO4c4FDF5gNlnlYWi6Y2WIqDol7/8pXcroend6VZAJCASEHV6tSR8rl9QlBcMXXfddQMHQ6RQsFlsWbrJ/vVf/7W+X/IMCYYSLqgeXyoDDNkpJkERawVmDUVYpDNxn5UAigREAiIBkfVQKbe9QhEwtPTSS9cHS9xkWViG8oQh1kEzKMlqav2U+6c4N6ftVzCUssG3+dobb7xRO/jgg+sxQ7jJDjvssNSW0za7q79dJhiyg06EotBiKygyhbLdCogERAKiPlxzZBqOJm8kpqgT95lgKLvZZLIM+Z9NZjBk0JknDO23336FiBlq170ARWPGzFrmgxsE3NhVhSJcuNHkjUVynwmIBEQConY9VofvYynaYvMt6nfG7aBo0GCIjj8Xy9AUWYaymFovGOqwo0j42O23394QaJ0VFD3y8CMNs8+ycp89N72YUCQgEhAJiBI6qLQvPf744zUyHlvyuSWXXDLRUiQYysYyhJtss802q7vn5CZL27Jbf69oMPTBBx+0PuACvgsUjRkzpt5WM4OiR3KCogJaigREAiIBUZ87xzgUxS1FSTDEoqK+S14xQ3lahvKAocdD9+n2229fH9jqAdR+kxLXcEXstttu9f1aniHfrpckGDr00ENziRnCTfbB++WDIbv2naUoB/fZI3lBUWgp2mabbepLueTtPhMQCYgERNYb9XHbDIpY6iOeZ2jQYOjaa6/to9LJPzUldJPlAUO4TZNgyDeU5AlD0aSLxAzlCkMltAzFW3Bu7rO8oCgEeaDIrOp5QpGASEAkIIr3SH16HociFtBk9WcLOGU2WVYwtOKKK9b3m1WeoSTLUJ4w5BtKqO84DF1wwQXeg2MNhmxAycwy9PobNcFQnzqL2M8MmvtsejglvwhQJCASEAmIYp1RP5/GoWiQYGidddapQxjxEFWGIWYZbrfddvW7XNxkVYah119/vQGGPv/5z8sy1M+OI/ytO26/I7eYok022aTeljMLtI5bikYOJW/0ncgzWm0Cot6BaPZwkFORAokKhBmgg8mTJwdhsGT9/fXXXz848cQTgxAY6q/5ePDRRx8FIYQEf/3rX93Ph5ah4PTTTw9CV5KP3TX85o033hg8+OCD7rUQhoLTTjst+OY3v9nwGR9P7r333iC0TLmfDgOonc7f+973gtB64mN39d987LGpwfXXXx+EnWsQwlBwzDHHBHvttZf3/T755JPB7373O7ff0DIUhPl/gkMOOcT7fsM7+iDMNOz2G8JQsO+++zqtZ5/db3f4zDPPuP1+/PHHQZiB2ml86qmnBp/73OfqdVGVBxttvFHw05/+NFh77bXdKYXu2OBPf/pTEC6O6vUUV199dbffcEFY147CBYGDq666KggD1b3uNwSvIExWGoRT8t1+Z8ycEVx22WXBm2++6XW/+vH+KjDHpEmTjunvTw7/NTpaK/HHPLe/kHAD+wvJOuCPC4g/e53HvG7PX3nlleCee+6xn89s+//+3/8LwvWVvHfemZ1Qkx2FbrIAGGGw5pzDKdABnY3vMsccc7jO9Omnnw4WWGABByWbbrqp792636dTnTlzZgCUMWBlAUPseLnllnPtmjZ9wgknBFnAEPsNE2u6Qfmpp54Kwv4gExhiv+EsxgAgeeKJJ4IDxh0QHHJwCEOz+4U/9gv00aYYpHfddddMYMj2O3LkyODRRx8NdtxxR9e2qghDnCuFdrXGGmsEDzzwgOszjj766GChhRYaetPj/4suuqjrs9CZG5pwKRTXd3ncpftp2tRXv/rVANDnGI477riAm8osy89+9rPgpZdeynKXbl+hu92dK/02N3D2l/mB9LjD2cJOfxat9Phj0a8b5PAa8GLP448NbKLwA/QwGPH397//3f3xGndWPOd1ex7GsQTnnXdedNeZPP7KV74S3HnnnZUHIhOTQevDDz8M1lxzTXspk204CyiYMWOG69gy2eFnO2GfoWslWHXVVbPcbfDWW28F3NUykPi2DEVPLMyU7Dpy7uiz3C/Xc7hwZxAukhv4ttBEz5f+hhspruMs98sxsF/qt8owFNWavgNYWHzxxaMve38cxqe5cWfUqFHe9xXdwauvvhq8/fbbmcMQY+yGG24Y3H333dHDyeTxJZdcEnzrW99ylk+uJ/6y7Ef6dZJz9uuH9DvVViDrOx1TEwsVf1mXcLZIwF/WJQxeD/jLumCp8e0GTTqneeaZJ8ANm3XhTpbBI4+Sx/nmcZ62z7z6DtzOeRTAL2v4y+M8q7hPv07zKiqmc5ICUkAKSAEpIAUqp4CAqHJVqhOSAlJACkgBKSAFulVAQNStYvq8FJACUkAKSAEpUDkFBESVq1KdkBSQAlJACkgBKdCtAgKibhXT56WAFJACUkAKSIHKKSAgqlyV6oSkgBSQAlJACkiBbhUQEHWrmD4vBaSAFJACUkAKVE4BAVHlqlQnJAWkgBSQAlJACnSrgICoW8X0eSkgBaSAFJACUqByCgiIKlelOiEpIAWkgBSQAlKgWwUERN0qps9LASkgBaSAFJAClVNAQFS5KtUJSQEpIAWkgBSQAt0qICDqVjF9XgpIASkgBaSAFKicAgKiylWpTkgKSAEpIAWkgBToVgEBUbeK6fNSQApIASkgBaRA5RQQEFWuSnVCUkAKSAEpIAWkQLcKCIi6VUyflwJSQApIASkgBSqngICoclWqE5ICUkAKSAEpIAW6VUBA1K1i+rwUkAJSQApIASlQOQUERJWrUp2QFJACUkAKSAEp0K0CAqJuFdPnpYAUkAJSQApIgcopICCqXJXqhKSAFJACUkAKSIFuFRAQdauYPi8FpIAUkAJSQApUTgEBUeWqVCckBaSAFJACUkAKdKuAgKhbxfR5KSAFpIAUkAJSoHIKCIgqV6U6ISkgBaSAFJACUqBbBebs9gv6/JACr7zySjBu3DjJIQWkgBSQAlKgEApMnTq1EMdR1oMQEKWsueeffz6YPHlyym/ra1JACkgBKSAFpECRFJDLrEi1oWORAlJACkgBKSAFclFAQJSL7NqpFJACUkAKSAEpUCQFBERFqg0dixSQAlJACkgBKZCLAgKiXGTXTqWAFJACUkAKSIEiKSAgKlJt6FikgBSQAlJACkiBXBQQEOUiu3YqBaSAFJACUkAKFEkBAVGRakPHIgWkgBSQAlJACuSigIAoF9m1UykgBaSAFJACUqBICgiIilQbOhYpIAWkgBSQAlIgFwUERLnIrp1KASkgBaSAFJACRVJAQFSk2tCxSAEpIAWkgBSQArkoICDKRXbtVApIASkgBaSAFCiSAgKiItWGjkUKSAEpIAWkgBTIRQEBUS6ya6dSQApIASkgBaRAkRQQEBWpNnQsUkAKSAEpIAWkQC4KCIhykV07lQJSQApIASkgBYqkgICoSLWhY5ECUkAKSAEpIAVyUUBAlIvs2qkUkAJSQApIASlQJAUEREWqDR2LFJACUkAKSAEpkIsCAqJcZNdOpYAUkAJSQApIgSIpICAqUm3oWKSAFJACUkAKSIFcFBAQ5SK7dioFpIAUkAJSQAoUSQEBUZFqQ8ciBaSAFJACUkAK5KKAgCgX2bVTKSAFpIAUkAJSoEgKCIiKVBs6FikgBaSAFJACUiAXBQREuciunUoBKSAFpIAUkAJFUkBAVKTa0LFIASkgBaSAFJACuShQaiCabbbZAv5UpIAUkAJSQApIgXwUqMpYPGc+8qXfqwlv24UXXjj45je/Wf/BWq1Wf6wHUkAKSAEpIAWkwJACUQNCq8f23uyzzx7wx/M55pjDPZ5zzjnd47nmmivgMX8rr7xyJSQuFRBRKfY3+2yzu0oZNWpU8KUvfSkAhARDlWiTOgkpIAWkgBTwoICBjo2j7CLpsYEQEMQf0AMAjRgxIph77rnd3+c+97lgnnnmcX+8NvTb5fbalAKIopVIRVFBn376aRCyq6sEHlMERE4G/ScFpIAUkAJSYJgCcfjhA/HXeJ4ERGYNsq3BklmQhn5n2C5L9ULhgcgqy7YGQ8DPJ5984iCIClGRAlJACkgBKSAFmivAOEqx8TT6OPoa4yzPDXrMQmRuMrb82fv2efcbQXnjegsNRFZB0S3wQ+WwBYhkHXLtW/9JASkgBaSAFGipAGMpxcbU6GN7jS3jaxR2DIhwmfFnQGRQxOf5Cx1m4Y8P/b7bUcn+KywQRSuOijFrkFUgFiJetyJ3mSmhrRSQAlJACkiB4QpEx1UDID5lj21rQGTbKADNPWLuYK4RQxYic58ZEJXYOOTEKhwQxSvMhEZ4qzgCqsMQasUMOUX0nxSQAlJACkiB9gpELTiMrQZA0a29jsGBxwY9USiyx7xnn4v+RvsjKeYnCgVESTA0x+xhAPUcQ0HTvG+WIixCcatQ+JKKFJACUkAKSIGBVuAzz5jToGFcxak1+9BMMAMYDAzR16JABOwYENkWl5k9rhIMIVahgMhasFUUYhMjFGY6cCRrtMprcRiy72orBaSAFJACUkAKzIrliUKRAY+Ns2yjr/HY/gyIbBsFIYOh6HfLrnmhgCheQSauVZhZhQRDpoy2UkAKSAEpIAWaK2DjKp+wxzam2vMo1NhjAx4giMfxP/sc26qUwgARFUOJVpCJzGuCIVNDWykgBaSAFJACnSkQH1ujY6w9ni10m83+mSvNXGiAjkGRwRCv2R/frRIMoWZhgIiDiQtslYXoZhVSnBBKqUgBKSAFpIAUaK3AkJ2BmKFwfHXz4QMHMTa22phrW8Zae4/HgJC9RzyvxRrZ51rvvXzvFgKIohUQlRAIaoQhRU1H9dFjKSAFpIAUkAKtFGB8pdg4a1uDGp7zOP681eu8V8WSOxAhLOBjWyqFYs/NMsRr0cc8V5ECUkAKSAEpIAWaK8BYyh/FHsfhJ/o86TPR15rvqfzv5A5EzpD3WWVRKbIKlb9R6QykgBSQAlKgGAoYzHA09pgt420SCNlneC/+HfdChf/LHYiGWKjR/EaFuBJ6yEjAqCIFpIAUkAJSQAp0r4CNpwY6to0CEb9qr7ONw1D3ey3nN3IFIoQ3d5nJN/Qaz0IQCrnIBYLZm9pKASkgBaSAFJACHSvAmEpha3+tYMg+Y0HYHe+oAh/MCYiooKG4ITQ0KLKKq4CuOgUpIAWkgBSQAoVQwEFOZJYZQGTjbR2AIsBUiIPO4SByAaIhYJ1lHaJCFDCdQ+1rl1JACkgBKVBpBeLg0wyGzE1WaTHanFzmQGTwY5XE8ZmFqM2x6m0pIAWkgBSQAlKgCwVsrGUrGGotXGZAhD+SAGmrnCgE2WutD1XvSgEpIAWkgBSQAt0qwBgb/eP79lyWoVlqZgZEFiBtIERlyE02qyL0SApIASkgBaRAvxUw8In+rr0mGIqqktHSHQY/bK0YGNlzbaWAFJACUkAKSIH+KhCHHsFQc329WojiIBSFoCgcNT88vSMFpIAUkAJSQAqkUwBXWeM3GXvjkNT4icF95hWIkDUKRfZ4cOXWmUsBKSAFpIAUyEcBwVBr3b0BURR+4o9bH5LelQJSQApIASkgBfqtwOyzDS3H0e/frcrveQMiBBIIVaWZ6DykgBSQAlKgzAowHqu0VsA7LqoSWleA3pUCUkAKSAEp4EsBxmCNw52p69VCZIegyjAltJUCUkAKSAEpIAWKqIB3C1ERT1rHJAWkgBSQAlJACkiBqAICoqgaeiwFpIAUkAJSQAoMpAICooGsdp20FJACUkAKSAEpEFVAQBRVQ4+lgBSQAlJACkiBgVRAQDSQ1a6TlgJSQApIASkgBaIKCIiiauixFJACUkAKSAEpMJAKCIgGstp10lJACkgBKSAFpEBUAQFRVA09lgJSQApIASkgBQZSAQHRQFa7TloKSAEpIAWkgBSIKiAgiqqhx1JACkgBKSAFpMBAKiAgGshq10lLASkgBaSAFJACUQUERFE19FgKSAEpIAWkgBQYSAUERANZ7TppKSAFpIAUkAJSIKqAgCiqhh5LASkgBaSAFJACA6mAgGggq10nLQWkgBSQAlJACkQVEBBF1dBjKSAFpIAUkAJSYCAVEBANZLXrpKWAFJACUkAKSIGoAgKiqBp6LAWkgBSQAlJACgykAgKigax2nbQUkAJSQApIASkQVUBAFFVDj6WAFJACUkAKSIGBVEBANJDVrpOWAlJACkgBKSAFogoIiKJq6LEUkAJSQApIASkwkAoIiAay2nXSUkAKSAEpIAWkQFQBAVFUDT2WAlJACkgBKSAFBlIBAdFAVrtOWgpIASkgBaSAFIgqICCKqqHHUkAKSAEpIAWkwEAq8P8BIVXElrX1CrAAAAAASUVORK5CYII=;" vertex="1" parent="1">
          <mxGeometry x="398" y="225" width="300" height="300" as="geometry" />
        </mxCell>
      </root>
    </mxGraphModel>
  </diagram>
</mxfile>
